<svg xmlns="http://www.w3.org/2000/svg" xmlns:xlink="http://www.w3.org/1999/xlink" width="1500" zoomAndPan="magnify" viewBox="0 0 1125 299.999988" height="400" preserveAspectRatio="xMidYMid meet" version="1.0"><defs><g/><clipPath id="3edc39c582"><path d="M 6.140625 50.855469 L 207.890625 50.855469 L 207.890625 228.519531 L 6.140625 228.519531 Z M 6.140625 50.855469 " clip-rule="nonzero"/></clipPath></defs><g fill="#dd1840" fill-opacity="1"><g transform="translate(477.656239, 232.918055)"><g><path d="M 78 -189.75 L 7 -189.75 C 16.25 -175.5 16.25 -151.75 16.25 -142.25 L 16.25 -19 C 16.25 -8.5 24.75 0 35.25 0 L 78 0 C 123 0 163.5 -30.75 163.5 -94.75 C 163.5 -159 123 -189.75 78 -189.75 Z M 78 -19 L 54.25 -19 L 54.25 -170.75 L 78 -170.75 C 116 -170.75 125.5 -130.5 125.5 -94.75 C 125.5 -59.25 116 -19 78 -19 Z M 78 -19 "/></g></g></g><g fill="#000000" fill-opacity="1"><g transform="translate(207.977305, 232.91806)"><g><path d="M 138.5 -189.75 L 117 -189.75 C 123.5 -181 124.25 -160.75 124.25 -154 L 124.25 -64 C 124.25 -36.25 111.5 -19 88.75 -19 C 69.75 -19 53 -33.25 53 -64 L 53 -170.75 C 53 -181.25 44.5 -189.75 34 -189.75 L 5.75 -189.75 C 15 -175.5 15 -151.75 15 -142.25 L 15 -64 C 15 -16.5 48 2.5 86 2.5 C 128 2.5 152.75 -24.5 152.75 -64 L 152.75 -175.5 C 152.75 -183.25 146.25 -189.75 138.5 -189.75 Z M 138.5 -189.75 "/></g></g></g><g fill="#000000" fill-opacity="1"><g transform="translate(373.207991, 175.13805)"><g><path d="M 65.519531 -17.039062 L 65.519531 -36.359375 C 65.519531 -53.28125 66.601562 -64.800781 50.640625 -64.800781 C 41.640625 -64.800781 35.878906 -59.160156 23.398438 -47.761719 L 23.398438 -54.601562 C 23.398438 -59.640625 19.320312 -63.71875 14.28125 -63.71875 L 4.078125 -63.71875 C 5.160156 -61.441406 6.238281 -53.398438 6.238281 -46.558594 L 6.238281 -9 C 6.238281 -3.960938 10.320312 0.121094 15.359375 0.121094 L 25.679688 0.121094 C 24.480469 -2.160156 23.398438 -10.199219 23.398438 -17.039062 L 23.398438 -40.921875 C 37.078125 -54.601562 48.480469 -58.679688 48.480469 -38.160156 L 48.359375 -9 C 48.359375 -3.960938 52.441406 0.121094 57.480469 0.121094 L 67.800781 0.121094 C 66.601562 -2.160156 65.519531 -10.199219 65.519531 -17.039062 Z M 65.519531 -17.039062 "/></g></g></g><g fill="#000000" fill-opacity="1"><g transform="translate(445.08794, 175.13805)"><g><path d="M 23.398438 -54.601562 C 23.398438 -59.640625 19.320312 -63.71875 14.28125 -63.71875 L 4.078125 -63.71875 C 5.160156 -61.441406 6.238281 -53.398438 6.238281 -46.558594 L 6.238281 -9 C 6.238281 -3.960938 10.320312 0.121094 15.359375 0.121094 L 25.679688 0.121094 C 24.480469 -2.160156 23.398438 -10.199219 23.398438 -17.039062 Z M 13.679688 -75.121094 C 19.441406 -75.238281 22.078125 -76.558594 28.320312 -90.960938 L 19.558594 -90.960938 C 13.800781 -90.839844 11.039062 -89.519531 4.921875 -75.121094 Z M 13.679688 -75.121094 "/></g></g></g><g fill="#dd1840" fill-opacity="1"><g transform="translate(650.664041, 175.13805)"><g><path d="M 23.398438 -54.601562 C 23.398438 -59.640625 19.320312 -63.71875 14.28125 -63.71875 L 4.078125 -63.71875 C 5.160156 -61.441406 6.238281 -53.398438 6.238281 -46.558594 L 6.238281 -9 C 6.238281 -3.960938 10.320312 0.121094 15.359375 0.121094 L 25.679688 0.121094 C 24.480469 -2.160156 23.398438 -10.199219 23.398438 -17.039062 Z M 13.679688 -75.121094 C 19.441406 -75.238281 22.078125 -76.558594 28.320312 -90.960938 L 19.558594 -90.960938 C 13.800781 -90.839844 11.039062 -89.519531 4.921875 -75.121094 Z M 13.679688 -75.121094 "/></g></g></g><g fill="#dd1840" fill-opacity="1"><g transform="translate(680.544027, 175.13805)"><g><path d="M 65.519531 -17.039062 L 65.519531 -36.359375 C 65.519531 -53.28125 66.601562 -64.800781 50.640625 -64.800781 C 41.640625 -64.800781 35.878906 -59.160156 23.398438 -47.761719 L 23.398438 -54.601562 C 23.398438 -59.640625 19.320312 -63.71875 14.28125 -63.71875 L 4.078125 -63.71875 C 5.160156 -61.441406 6.238281 -53.398438 6.238281 -46.558594 L 6.238281 -9 C 6.238281 -3.960938 10.320312 0.121094 15.359375 0.121094 L 25.679688 0.121094 C 24.480469 -2.160156 23.398438 -10.199219 23.398438 -17.039062 L 23.398438 -40.921875 C 37.078125 -54.601562 48.480469 -58.679688 48.480469 -38.160156 L 48.359375 -9 C 48.359375 -3.960938 52.441406 0.121094 57.480469 0.121094 L 67.800781 0.121094 C 66.601562 -2.160156 65.519531 -10.199219 65.519531 -17.039062 Z M 65.519531 -17.039062 "/></g></g></g><g fill="#dd1840" fill-opacity="1"><g transform="translate(752.423975, 175.13805)"><g><path d="M 34.800781 -10.320312 C 28.679688 -10.320312 22.800781 -14.28125 20.039062 -21.839844 C 27.121094 -22.800781 54.960938 -24.71875 54.960938 -45.359375 C 54.960938 -56.878906 45.71875 -64.800781 31.800781 -64.800781 C 12.238281 -64.800781 2.28125 -49.441406 2.28125 -31.800781 C 2.28125 -14.160156 12 1.199219 31.679688 1.199219 C 39.601562 1.199219 46.800781 -2.28125 50.28125 -6.839844 C 54.121094 -12 53.761719 -17.761719 50.519531 -21 C 48.839844 -14.878906 42.359375 -10.320312 34.800781 -10.320312 Z M 18.480469 -31.800781 C 18.480469 -50.039062 25.078125 -56.878906 31.199219 -56.878906 C 36.839844 -56.878906 39.71875 -53.398438 39.71875 -45.359375 C 39.71875 -38.039062 33.960938 -30.601562 18.960938 -26.039062 C 18.601562 -27.839844 18.480469 -29.761719 18.480469 -31.800781 Z M 18.480469 -31.800781 "/></g></g></g><g fill="#000000" fill-opacity="1"><g transform="translate(809.785084, 232.918055)"><g><path d="M 54.25 -170.75 C 54.25 -181.25 45.75 -189.75 35.25 -189.75 L 7 -189.75 C 16.25 -175.5 16.25 -151.75 16.25 -142.25 L 16.25 -19 C 16.25 -8.5 24.75 0 35.25 0 L 63.75 0 C 54.25 -14.25 54.25 -38 54.25 -47.5 Z M 165.5 -47.5 L 165.5 -170.75 C 165.5 -181.25 157 -189.75 146.5 -189.75 L 118 -189.75 C 127.5 -175.5 127.5 -151.75 127.5 -142.25 L 127.5 -19 C 127.5 -8.5 136 0 146.5 0 L 175 0 C 165.5 -14.25 165.5 -38 165.5 -47.5 Z M 82.75 -113.75 C 75.25 -113.75 66.75 -109.25 63.75 -102 L 59 -90 L 99 -90 C 106.75 -90 115.25 -94.75 118 -101.75 L 122.75 -113.75 Z M 82.75 -113.75 "/></g></g></g><g fill="#000000" fill-opacity="1"><g transform="translate(986.035022, 175.13805)"><g><path d="M 64.199219 -17.039062 L 64.199219 -54.601562 C 64.199219 -59.640625 60.121094 -63.71875 55.078125 -63.71875 L 44.878906 -63.71875 C 46.078125 -61.441406 47.160156 -53.398438 47.160156 -46.558594 L 47.160156 -25.800781 C 34.199219 -9.71875 23.160156 -2.398438 23.160156 -22.441406 L 23.160156 -54.601562 C 23.160156 -59.640625 19.078125 -63.71875 14.039062 -63.71875 L 3.839844 -63.71875 C 4.921875 -61.441406 6 -53.398438 6 -46.558594 L 6 -28.078125 C 6 -11.28125 6 1.199219 21.839844 1.199219 C 32.761719 1.199219 41.519531 -8.039062 47.160156 -17.761719 L 47.160156 -9 C 47.160156 -3.960938 51.238281 0.121094 56.28125 0.121094 L 66.480469 0.121094 C 65.398438 -2.160156 64.199219 -10.199219 64.199219 -17.039062 Z M 64.199219 -17.039062 "/></g></g></g><g fill="#000000" fill-opacity="1"><g transform="translate(1056.714982, 175.13805)"><g><path d="M 44.761719 -64.800781 C 37.921875 -64.800781 32.640625 -60.480469 21.960938 -50.519531 L 21.960938 -84.121094 C 21.960938 -89.160156 17.878906 -93.238281 12.839844 -93.238281 L 2.640625 -93.238281 C 3.71875 -90.960938 4.800781 -83.039062 4.800781 -76.199219 L 4.800781 -9 C 4.800781 -3.960938 8.878906 0.121094 13.921875 0.121094 L 24.238281 0.121094 C 23.039062 -2.160156 21.960938 -10.199219 21.960938 -17.039062 L 21.960938 -44.039062 C 35.640625 -57.71875 46.921875 -54.601562 46.921875 -31.800781 C 46.921875 -9 36.71875 -6.71875 25.320312 -13.558594 C 26.398438 -5.640625 32.160156 1.199219 43.558594 1.199219 C 54.121094 1.199219 64.078125 -7.921875 64.078125 -31.800781 C 64.078125 -50.039062 59.519531 -64.800781 44.761719 -64.800781 Z M 44.761719 -64.800781 "/></g></g></g><g clip-path="url(#3edc39c582)"><path fill="#dd1840" d="M 170.78125 140.0625 C 199.835938 135.214844 200.34375 95.96875 177.144531 82.207031 L 182.503906 83.988281 C 206.453125 96.222656 202.890625 142.609375 170.78125 140.0625 Z M 207.992188 112.023438 C 207.992188 131.902344 192.1875 148.210938 171.542969 150.765625 C 167.714844 150.511719 162.878906 148.972656 159.570312 148.972656 C 160.078125 151.53125 162.367188 153.3125 164.914062 154.585938 C 163.644531 174.972656 162.878906 195.871094 167.460938 218.304688 C 161.097656 223.398438 149.621094 226.71875 136.371094 228.5 C 136.371094 228.5 134.335938 228.753906 132.550781 227.734375 C 131.015625 226.71875 130.507812 223.90625 130.507812 223.652344 C 130.769531 220.089844 131.277344 216.265625 131.53125 212.695312 C 133.058594 198.171875 135.351562 178.039062 138.917969 164.015625 C 140.707031 156.113281 143 159.941406 149.621094 155.351562 C 152.9375 153.3125 155.230469 150.003906 156.503906 143.117188 C 159.050781 129.101562 156.503906 109.222656 146.566406 107.433594 L 146.308594 107.433594 C 136.371094 105.398438 126.941406 122.984375 124.140625 137.253906 C 122.867188 144.136719 123.886719 147.703125 126.175781 151.023438 C 130.769531 157.640625 134.589844 154.332031 133.570312 162.996094 C 131.53125 177.265625 126.6875 195.617188 123.121094 209.640625 C 121.847656 215.242188 120.3125 221.105469 118.53125 227.226562 C 118.019531 227.734375 117.765625 228.246094 117.257812 228.246094 C 115.984375 228.5 115.472656 226.207031 115.21875 225.953125 C 112.164062 203.265625 108.84375 162.742188 109.355469 145.921875 C 109.863281 136.488281 120.058594 141.335938 119.804688 131.390625 C 119.292969 115.59375 118.273438 102.082031 118.53125 86.285156 C 118.53125 85.265625 117.765625 85.265625 117.511719 85.265625 C 117.257812 85.265625 116.492188 85.519531 116.238281 86.285156 L 114.964844 123.242188 C 114.964844 124.511719 112.417969 124.511719 112.164062 122.984375 L 111.136719 85.265625 C 111.136719 84.753906 110.625 84.496094 110.117188 84.496094 C 109.863281 84.496094 109.609375 84.753906 109.609375 85.265625 L 108.078125 122.726562 C 107.828125 124.511719 105.28125 124.511719 105.027344 122.726562 L 103.496094 85.265625 C 103.496094 84.753906 103.234375 84.496094 102.988281 84.496094 C 102.480469 84.496094 101.96875 84.753906 101.96875 85.265625 L 100.953125 122.984375 C 100.6875 124.511719 98.140625 124.511719 98.394531 123.242188 L 96.867188 86.285156 C 96.613281 85.519531 95.847656 85.265625 95.59375 85.265625 C 95.339844 85.265625 94.578125 85.265625 94.578125 86.285156 C 94.824219 102.082031 93.804688 115.59375 93.292969 131.390625 C 93.046875 141.335938 103.496094 137 103.742188 145.921875 C 104.253906 162.996094 100.953125 204.792969 97.632812 226.96875 C 97.375 227.988281 96.867188 228.753906 96.105469 228.5 C 95.59375 228.5 94.824219 227.734375 94.578125 226.96875 C 92.785156 217.03125 91.011719 205.558594 89.984375 193.070312 C 89.984375 192.308594 89.730469 191.289062 89.476562 190.269531 C 89.222656 189.503906 88.457031 189.25 87.691406 188.996094 C 87.4375 188.742188 86.671875 183.894531 87.183594 183.386719 C 87.949219 181.859375 88.96875 182.621094 88.203125 178.039062 L 79.789062 109.734375 C 79.789062 109.734375 79.28125 100.8125 73.417969 104.125 C 70.105469 105.90625 67.558594 111.261719 66.796875 119.417969 C 66.023438 130.882812 67.050781 178.039062 71.378906 181.601562 C 73.417969 183.386719 75.453125 184.914062 79.789062 184.65625 L 80.046875 184.65625 C 81.0625 184.65625 81.582031 189.25 81.316406 189.503906 C 80.554688 190.015625 80.300781 190.523438 80.046875 191.542969 C 80.300781 192.5625 80.300781 193.324219 80.300781 194.089844 C 82.089844 205.808594 82.089844 216.523438 81.582031 225.699219 C 81.316406 226.207031 81.0625 226.460938 80.808594 226.71875 C 79.535156 228.246094 77.5 228.246094 76.988281 228.246094 C 62.722656 226.460938 51.246094 222.886719 47.160156 218.304688 C 50.738281 192.5625 50.480469 172.9375 49.460938 154.078125 C 53.539062 153.566406 57.363281 152.550781 61.949219 150.003906 C 58.128906 150.257812 60.675781 150.003906 56.59375 150.511719 C 53.800781 151.023438 51.5 151.273438 49.210938 151.273438 C 48.953125 151.273438 48.699219 151.273438 48.445312 151.273438 C 46.144531 151.273438 44.109375 151.023438 41.304688 150.765625 C 21.429688 147.449219 6.140625 131.390625 6.140625 112.023438 C 6.140625 99.792969 11.996094 89.085938 21.171875 81.695312 C 36.714844 69.714844 48.953125 72.519531 67.304688 80.675781 C 72.398438 82.96875 70.363281 82.460938 74.945312 82.96875 C 67.050781 77.871094 59.910156 73.03125 52.265625 70.480469 C 58.894531 58.757812 73.417969 50.855469 90.238281 50.855469 C 100.6875 50.855469 110.371094 54.167969 117.765625 59.265625 L 117.511719 59.265625 C 104.515625 67.421875 101.96875 70.992188 85.65625 71.246094 C 96.867188 77.617188 113.691406 66.660156 121.339844 63.347656 C 134.078125 57.484375 146.566406 59.777344 157.777344 68.1875 C 151.410156 67.933594 133.570312 74.050781 129.230469 85.519531 C 159.570312 67.679688 207.992188 66.914062 207.992188 112.023438 Z M 18.625 120.179688 C 24.738281 135.980469 36.46875 143.375 56.082031 144.394531 L 50.480469 145.410156 C 39.523438 145.921875 28.566406 141.335938 21.9375 132.671875 C 18.625 128.335938 18.117188 125.277344 18.625 120.179688 " fill-opacity="1" fill-rule="evenodd"/></g></svg>