<svg xmlns="http://www.w3.org/2000/svg" xmlns:xlink="http://www.w3.org/1999/xlink" width="500" zoomAndPan="magnify" viewBox="0 0 375 374.999991" height="500" preserveAspectRatio="xMidYMid meet" version="1.0"><defs><g/><clipPath id="ddd2c61692"><path d="M 110.09375 86.929688 L 264.59375 86.929688 L 264.59375 209.929688 L 110.09375 209.929688 Z M 110.09375 86.929688 " clip-rule="nonzero"/></clipPath></defs><rect x="-37.5" width="450" fill="#ffffff" y="-37.499999" height="449.999989" fill-opacity="1"/><rect x="-37.5" width="450" fill="#ffffff" y="-37.499999" height="449.999989" fill-opacity="1"/><g fill="#5b5353" fill-opacity="1"><g transform="translate(72.375, 261.493387)"><g><path d="M 29.1875 -24.46875 L 29.1875 -11.5625 C 29.1875 -7.34375 28.164062 -4.316406 26.125 -2.484375 C 24.09375 -0.648438 20.671875 0.265625 15.859375 0.265625 C 11.265625 0.265625 7.890625 -0.710938 5.734375 -2.671875 C 3.585938 -4.640625 2.515625 -7.601562 2.515625 -11.5625 L 2.515625 -24.46875 C 2.515625 -26 2.96875 -27.25 3.875 -28.21875 C 4.78125 -29.1875 5.925781 -29.671875 7.3125 -29.671875 C 9.019531 -29.671875 10.3125 -29.351562 11.1875 -28.71875 C 12.070312 -28.082031 12.515625 -26.796875 12.515625 -24.859375 L 12.515625 -10.734375 C 12.546875 -9.816406 12.695312 -9.082031 12.96875 -8.53125 C 13.25 -7.976562 13.617188 -7.59375 14.078125 -7.375 C 14.535156 -7.164062 15.125 -7.0625 15.84375 -7.0625 C 16.570312 -7.0625 17.164062 -7.144531 17.625 -7.3125 C 18.09375 -7.488281 18.429688 -7.765625 18.640625 -8.140625 C 18.859375 -8.515625 19.003906 -8.890625 19.078125 -9.265625 C 19.148438 -9.640625 19.1875 -10.128906 19.1875 -10.734375 L 19.1875 -24.90625 C 19.1875 -25.882812 19.304688 -26.707031 19.546875 -27.375 C 19.796875 -28.039062 20.171875 -28.53125 20.671875 -28.84375 C 21.179688 -29.164062 21.703125 -29.382812 22.234375 -29.5 C 22.773438 -29.613281 23.421875 -29.671875 24.171875 -29.671875 C 25.847656 -29.671875 27.101562 -29.265625 27.9375 -28.453125 C 28.769531 -27.648438 29.1875 -26.320312 29.1875 -24.46875 Z M 29.1875 -24.46875 "/></g></g></g><g fill="#5b5353" fill-opacity="1"><g transform="translate(104.28774, 261.493387)"><g><path d="M 15.296875 -11.65625 C 15.296875 -13.269531 14.660156 -14.078125 13.390625 -14.078125 C 12.773438 -14.078125 12.269531 -13.820312 11.875 -13.3125 C 11.488281 -12.8125 11.269531 -12.140625 11.21875 -11.296875 L 11.21875 -4.640625 C 11.21875 -2.878906 10.851562 -1.664062 10.125 -1 C 9.40625 -0.332031 8.140625 0 6.328125 0 C 4.617188 0 3.453125 -0.394531 2.828125 -1.1875 C 2.210938 -1.976562 1.90625 -3.285156 1.90625 -5.109375 L 1.90625 -15.765625 C 1.90625 -17.234375 2.300781 -18.414062 3.09375 -19.3125 C 3.882812 -20.207031 4.945312 -20.65625 6.28125 -20.65625 C 7.375 -20.65625 8.296875 -20.492188 9.046875 -20.171875 C 9.796875 -19.859375 10.359375 -19.3125 10.734375 -18.53125 C 12.992188 -20.007812 15.738281 -20.75 18.96875 -20.75 C 21.019531 -20.75 22.5 -19.9375 23.40625 -18.3125 C 24.320312 -16.695312 24.78125 -14.046875 24.78125 -10.359375 C 24.78125 -8.535156 24.734375 -7.050781 24.640625 -5.90625 C 24.554688 -4.769531 24.421875 -3.789062 24.234375 -2.96875 C 24.046875 -2.144531 23.75 -1.53125 23.34375 -1.125 C 22.9375 -0.71875 22.46875 -0.425781 21.9375 -0.25 C 21.40625 -0.0820312 20.71875 0 19.875 0 C 18.257812 0 17.097656 -0.300781 16.390625 -0.90625 C 15.679688 -1.507812 15.328125 -2.40625 15.328125 -3.59375 Z M 15.296875 -11.65625 "/></g></g></g><g fill="#5b5353" fill-opacity="1"><g transform="translate(130.961078, 261.493387)"><g><path d="M 11.265625 -4.640625 C 11.265625 -2.898438 10.898438 -1.691406 10.171875 -1.015625 C 9.453125 -0.335938 8.179688 0 6.359375 0 C 4.660156 0 3.5 -0.394531 2.875 -1.1875 C 2.257812 -1.976562 1.953125 -3.285156 1.953125 -5.109375 L 1.953125 -15.765625 C 1.953125 -17.234375 2.347656 -18.414062 3.140625 -19.3125 C 3.929688 -20.207031 4.992188 -20.65625 6.328125 -20.65625 C 7.878906 -20.65625 9.085938 -20.316406 9.953125 -19.640625 C 10.828125 -18.960938 11.265625 -17.710938 11.265625 -15.890625 Z M 1.859375 -26.6875 C 1.859375 -25.53125 2.304688 -24.691406 3.203125 -24.171875 C 4.097656 -23.648438 5.222656 -23.390625 6.578125 -23.390625 C 8.109375 -23.390625 9.273438 -23.632812 10.078125 -24.125 C 10.890625 -24.613281 11.296875 -25.46875 11.296875 -26.6875 C 11.296875 -28.875 9.722656 -29.96875 6.578125 -29.96875 C 5.078125 -29.96875 3.914062 -29.664062 3.09375 -29.0625 C 2.269531 -28.457031 1.859375 -27.664062 1.859375 -26.6875 Z M 1.859375 -26.6875 "/></g></g></g><g fill="#5b5353" fill-opacity="1"><g transform="translate(144.167845, 261.493387)"><g><path d="M 13.296875 -6.5 C 14.128906 -6.5 14.660156 -6.734375 14.890625 -7.203125 C 15.128906 -7.679688 15.25 -8.554688 15.25 -9.828125 L 15.296875 -16.8125 C 15.296875 -17.695312 15.445312 -18.414062 15.75 -18.96875 C 16.050781 -19.519531 16.5625 -19.9375 17.28125 -20.21875 C 18 -20.507812 18.96875 -20.65625 20.1875 -20.65625 C 20.96875 -20.65625 21.601562 -20.566406 22.09375 -20.390625 C 22.582031 -20.222656 23.015625 -19.941406 23.390625 -19.546875 C 23.765625 -19.160156 24.035156 -18.570312 24.203125 -17.78125 C 24.378906 -16.988281 24.507812 -16.035156 24.59375 -14.921875 C 24.6875 -13.804688 24.734375 -12.398438 24.734375 -10.703125 C 24.734375 -9.140625 24.488281 -7.738281 24 -6.5 C 23.507812 -5.257812 22.878906 -4.238281 22.109375 -3.4375 C 21.347656 -2.644531 20.460938 -1.984375 19.453125 -1.453125 C 18.441406 -0.921875 17.429688 -0.546875 16.421875 -0.328125 C 15.410156 -0.109375 14.390625 0 13.359375 0 C 12.335938 0 11.320312 -0.109375 10.3125 -0.328125 C 9.300781 -0.546875 8.28125 -0.921875 7.25 -1.453125 C 6.226562 -1.984375 5.328125 -2.644531 4.546875 -3.4375 C 3.765625 -4.238281 3.128906 -5.257812 2.640625 -6.5 C 2.148438 -7.738281 1.90625 -9.140625 1.90625 -10.703125 C 1.90625 -13.523438 2.035156 -15.625 2.296875 -17 C 2.554688 -18.375 2.992188 -19.328125 3.609375 -19.859375 C 4.234375 -20.390625 5.179688 -20.65625 6.453125 -20.65625 C 8.242188 -20.65625 9.515625 -20.34375 10.265625 -19.71875 C 11.015625 -19.101562 11.390625 -18.132812 11.390625 -16.8125 L 11.4375 -9.875 C 11.4375 -9.414062 11.4375 -9.078125 11.4375 -8.859375 C 11.4375 -8.640625 11.445312 -8.367188 11.46875 -8.046875 C 11.5 -7.734375 11.554688 -7.503906 11.640625 -7.359375 C 11.734375 -7.210938 11.84375 -7.0625 11.96875 -6.90625 C 12.101562 -6.75 12.28125 -6.640625 12.5 -6.578125 C 12.71875 -6.523438 12.984375 -6.5 13.296875 -6.5 Z M 13.296875 -6.5 "/></g></g></g><g fill="#5b5353" fill-opacity="1"><g transform="translate(170.884476, 261.493387)"><g><path d="M 10.90625 -12.125 C 12.90625 -12.15625 13.988281 -12.171875 14.15625 -12.171875 C 14.59375 -12.171875 14.910156 -12.429688 15.109375 -12.953125 C 15.253906 -13.328125 15.328125 -13.847656 15.328125 -14.515625 C 15.328125 -16.328125 14.78125 -17.234375 13.6875 -17.234375 C 13.28125 -17.234375 12.878906 -17.015625 12.484375 -16.578125 C 12.097656 -16.148438 11.757812 -15.539062 11.46875 -14.75 C 11.1875 -13.957031 11 -13.082031 10.90625 -12.125 Z M 13.859375 0.265625 C 10.335938 0.265625 7.425781 -0.644531 5.125 -2.46875 C 2.832031 -4.289062 1.6875 -6.773438 1.6875 -9.921875 C 1.6875 -13.328125 2.816406 -16.019531 5.078125 -18 C 7.347656 -19.976562 10.273438 -20.96875 13.859375 -20.96875 C 17.234375 -20.96875 19.707031 -20.367188 21.28125 -19.171875 C 22.851562 -17.972656 23.640625 -16.332031 23.640625 -14.25 C 23.640625 -13.84375 23.585938 -13.453125 23.484375 -13.078125 C 23.390625 -12.703125 23.234375 -12.332031 23.015625 -11.96875 C 22.796875 -11.613281 22.503906 -11.285156 22.140625 -10.984375 C 21.785156 -10.679688 21.375 -10.40625 20.90625 -10.15625 C 20.445312 -9.90625 19.898438 -9.71875 19.265625 -9.59375 C 18.628906 -9.46875 17.953125 -9.40625 17.234375 -9.40625 L 11.125 -9.359375 C 11.414062 -8.429688 11.9375 -7.695312 12.6875 -7.15625 C 13.4375 -6.625 14.390625 -6.359375 15.546875 -6.359375 C 16.785156 -6.359375 18.054688 -6.519531 19.359375 -6.84375 C 19.910156 -6.988281 20.507812 -7.21875 21.15625 -7.53125 C 21.800781 -7.851562 22.269531 -8.015625 22.5625 -8.015625 C 23.050781 -8.015625 23.429688 -7.867188 23.703125 -7.578125 C 23.984375 -7.285156 24.125 -6.925781 24.125 -6.5 C 24.125 -5.976562 23.890625 -5.347656 23.421875 -4.609375 C 22.960938 -3.878906 22.320312 -3.144531 21.5 -2.40625 C 20.675781 -1.664062 19.585938 -1.035156 18.234375 -0.515625 C 16.878906 0.00390625 15.421875 0.265625 13.859375 0.265625 Z M 13.859375 0.265625 "/></g></g></g><g fill="#5b5353" fill-opacity="1"><g transform="translate(196.648489, 261.493387)"><g><path d="M 11.25 -4.640625 C 11.25 -2.898438 10.890625 -1.691406 10.171875 -1.015625 C 9.453125 -0.335938 8.164062 0 6.3125 0 C 4.613281 0 3.460938 -0.394531 2.859375 -1.1875 C 2.253906 -1.976562 1.953125 -3.285156 1.953125 -5.109375 L 1.953125 -15.765625 C 1.953125 -16.742188 2.125 -17.601562 2.46875 -18.34375 C 2.8125 -19.082031 3.316406 -19.648438 3.984375 -20.046875 C 4.648438 -20.453125 5.425781 -20.65625 6.3125 -20.65625 C 8.507812 -20.65625 9.957031 -20.019531 10.65625 -18.75 C 12.320312 -20.019531 13.9375 -20.65625 15.5 -20.65625 C 18.53125 -20.65625 20.046875 -19.210938 20.046875 -16.328125 C 20.046875 -15.171875 19.710938 -14.234375 19.046875 -13.515625 C 18.390625 -12.796875 17.523438 -12.4375 16.453125 -12.4375 C 15.816406 -12.4375 15.300781 -12.5625 14.90625 -12.8125 C 14.519531 -13.070312 14.160156 -13.332031 13.828125 -13.59375 C 13.503906 -13.851562 13.125 -13.984375 12.6875 -13.984375 C 12.050781 -13.984375 11.570312 -13.769531 11.25 -13.34375 Z M 11.25 -4.640625 "/></g></g></g><g fill="#5b5353" fill-opacity="1"><g transform="translate(217.086503, 261.493387)"><g><path d="M 12.125 -20.96875 C 14.8125 -20.96875 17.046875 -20.414062 18.828125 -19.3125 C 20.617188 -18.21875 21.515625 -17.019531 21.515625 -15.71875 C 21.515625 -15.34375 21.351562 -14.992188 21.03125 -14.671875 C 20.71875 -14.359375 20.316406 -14.203125 19.828125 -14.203125 C 19.398438 -14.203125 18.925781 -14.351562 18.40625 -14.65625 C 17.882812 -14.957031 17.390625 -15.28125 16.921875 -15.625 C 16.460938 -15.976562 15.859375 -16.296875 15.109375 -16.578125 C 14.359375 -16.867188 13.566406 -17.015625 12.734375 -17.015625 C 11.609375 -17.015625 11.046875 -16.671875 11.046875 -15.984375 C 11.046875 -15.492188 11.332031 -15.101562 11.90625 -14.8125 C 12.488281 -14.519531 13.332031 -14.210938 14.4375 -13.890625 C 15.550781 -13.578125 16.394531 -13.28125 16.96875 -13 C 19.132812 -12.15625 20.625 -11.25 21.4375 -10.28125 C 22.25 -9.3125 22.65625 -8.035156 22.65625 -6.453125 C 22.65625 -5.671875 22.4375 -4.894531 22 -4.125 C 21.5625 -3.363281 20.910156 -2.644531 20.046875 -1.96875 C 19.179688 -1.289062 18.003906 -0.742188 16.515625 -0.328125 C 15.035156 0.0859375 13.34375 0.296875 11.4375 0.296875 C 7.707031 0.296875 4.921875 -0.550781 3.078125 -2.25 C 2.179688 -3.09375 1.734375 -3.957031 1.734375 -4.84375 C 1.734375 -5.394531 1.910156 -5.828125 2.265625 -6.140625 C 2.628906 -6.460938 3.144531 -6.625 3.8125 -6.625 C 4.46875 -6.625 5.472656 -6.296875 6.828125 -5.640625 C 8.191406 -4.992188 9.453125 -4.671875 10.609375 -4.671875 C 12.191406 -4.671875 12.984375 -5.0625 12.984375 -5.84375 C 12.984375 -6.25 12.566406 -6.570312 11.734375 -6.8125 C 10.898438 -7.0625 9.800781 -7.359375 8.4375 -7.703125 C 7.082031 -8.054688 6 -8.492188 5.1875 -9.015625 C 3.914062 -9.554688 3.023438 -10.238281 2.515625 -11.0625 C 2.015625 -11.882812 1.765625 -12.890625 1.765625 -14.078125 C 1.765625 -16.097656 2.722656 -17.75 4.640625 -19.03125 C 6.566406 -20.320312 9.0625 -20.96875 12.125 -20.96875 Z M 12.125 -20.96875 "/></g></g></g><g fill="#5b5353" fill-opacity="1"><g transform="translate(241.421584, 261.493387)"><g><path d="M 11.265625 -4.640625 C 11.265625 -2.898438 10.898438 -1.691406 10.171875 -1.015625 C 9.453125 -0.335938 8.179688 0 6.359375 0 C 4.660156 0 3.5 -0.394531 2.875 -1.1875 C 2.257812 -1.976562 1.953125 -3.285156 1.953125 -5.109375 L 1.953125 -15.765625 C 1.953125 -17.234375 2.347656 -18.414062 3.140625 -19.3125 C 3.929688 -20.207031 4.992188 -20.65625 6.328125 -20.65625 C 7.878906 -20.65625 9.085938 -20.316406 9.953125 -19.640625 C 10.828125 -18.960938 11.265625 -17.710938 11.265625 -15.890625 Z M 1.859375 -26.6875 C 1.859375 -25.53125 2.304688 -24.691406 3.203125 -24.171875 C 4.097656 -23.648438 5.222656 -23.390625 6.578125 -23.390625 C 8.109375 -23.390625 9.273438 -23.632812 10.078125 -24.125 C 10.890625 -24.613281 11.296875 -25.46875 11.296875 -26.6875 C 11.296875 -28.875 9.722656 -29.96875 6.578125 -29.96875 C 5.078125 -29.96875 3.914062 -29.664062 3.09375 -29.0625 C 2.269531 -28.457031 1.859375 -27.664062 1.859375 -26.6875 Z M 1.859375 -26.6875 "/></g></g></g><g fill="#5b5353" fill-opacity="1"><g transform="translate(254.628352, 261.493387)"><g><path d="M 4.15625 -9.265625 L 4.15625 -14.375 C 3.4375 -14.40625 2.859375 -14.53125 2.421875 -14.75 C 1.992188 -14.96875 1.6875 -15.25 1.5 -15.59375 C 1.3125 -15.9375 1.21875 -16.367188 1.21875 -16.890625 C 1.21875 -18.535156 2.210938 -19.429688 4.203125 -19.578125 L 4.203125 -23.609375 C 4.203125 -24.703125 4.992188 -25.6875 6.578125 -26.5625 C 8.171875 -27.445312 9.742188 -27.890625 11.296875 -27.890625 C 12.253906 -27.890625 12.875 -27.613281 13.15625 -27.0625 C 13.445312 -26.519531 13.59375 -25.695312 13.59375 -24.59375 L 13.640625 -19.625 L 14.8125 -19.625 C 16.394531 -19.625 17.484375 -19.410156 18.078125 -18.984375 C 18.671875 -18.566406 18.96875 -17.8125 18.96875 -16.71875 C 18.96875 -16.257812 18.878906 -15.867188 18.703125 -15.546875 C 18.535156 -15.234375 18.253906 -14.988281 17.859375 -14.8125 C 17.472656 -14.632812 17.003906 -14.507812 16.453125 -14.4375 C 15.910156 -14.375 15.234375 -14.34375 14.421875 -14.34375 L 13.640625 -14.34375 L 13.640625 -9.578125 C 13.640625 -9.109375 13.660156 -8.722656 13.703125 -8.421875 C 13.742188 -8.117188 13.804688 -7.878906 13.890625 -7.703125 C 13.984375 -7.535156 14.109375 -7.421875 14.265625 -7.359375 C 14.429688 -7.304688 14.628906 -7.28125 14.859375 -7.28125 C 15.203125 -7.28125 15.488281 -7.398438 15.71875 -7.640625 C 15.945312 -7.890625 16.125 -8.164062 16.25 -8.46875 C 16.382812 -8.769531 16.5625 -9.039062 16.78125 -9.28125 C 17 -9.53125 17.253906 -9.65625 17.546875 -9.65625 C 18.203125 -9.65625 18.710938 -9.492188 19.078125 -9.171875 C 19.441406 -8.859375 19.625 -8.472656 19.625 -8.015625 C 19.625 -7.234375 19.472656 -6.394531 19.171875 -5.5 C 18.867188 -4.601562 18.425781 -3.734375 17.84375 -2.890625 C 17.269531 -2.054688 16.46875 -1.363281 15.4375 -0.8125 C 14.414062 -0.269531 13.269531 0 12 0 C 9.132812 0 7.109375 -0.71875 5.921875 -2.15625 C 4.742188 -3.601562 4.15625 -5.972656 4.15625 -9.265625 Z M 4.15625 -9.265625 "/></g></g></g><g fill="#5b5353" fill-opacity="1"><g transform="translate(276.322068, 261.493387)"><g><path d="M 24.421875 -12.21875 C 24.421875 -7.28125 24.28125 -3.828125 24 -1.859375 C 23.769531 -0.0976562 23.40625 1.421875 22.90625 2.703125 C 22.414062 3.992188 21.722656 5.132812 20.828125 6.125 C 19.929688 7.125 18.789062 7.867188 17.40625 8.359375 C 16.019531 8.847656 14.375 9.09375 12.46875 9.09375 C 10.9375 9.09375 9.515625 8.867188 8.203125 8.421875 C 6.890625 7.972656 5.847656 7.421875 5.078125 6.765625 C 4.316406 6.117188 3.71875 5.476562 3.28125 4.84375 C 2.851562 4.207031 2.640625 3.660156 2.640625 3.203125 C 2.640625 2.742188 2.789062 2.316406 3.09375 1.921875 C 3.394531 1.535156 3.804688 1.34375 4.328125 1.34375 C 4.703125 1.34375 5.140625 1.457031 5.640625 1.6875 C 6.148438 1.914062 6.632812 2.175781 7.09375 2.46875 C 7.5625 2.757812 8.113281 3.019531 8.75 3.25 C 9.382812 3.476562 10.003906 3.59375 10.609375 3.59375 C 12.171875 3.59375 13.273438 3.203125 13.921875 2.421875 C 14.578125 1.640625 14.90625 0.53125 14.90625 -0.90625 C 14.40625 -0.707031 13.925781 -0.535156 13.46875 -0.390625 C 13.007812 -0.242188 12.5625 -0.125 12.125 -0.03125 C 11.695312 0.0507812 11.285156 0.101562 10.890625 0.125 C 10.503906 0.15625 10.125 0.171875 9.75 0.171875 C 8.039062 0.171875 6.578125 -0.300781 5.359375 -1.25 C 4.148438 -2.207031 3.28125 -3.382812 2.75 -4.78125 C 2.21875 -6.1875 1.953125 -7.695312 1.953125 -9.3125 C 1.953125 -10.925781 1.972656 -12.296875 2.015625 -13.421875 C 2.054688 -14.546875 2.148438 -15.550781 2.296875 -16.4375 C 2.441406 -17.320312 2.609375 -18.019531 2.796875 -18.53125 C 2.984375 -19.050781 3.25 -19.476562 3.59375 -19.8125 C 3.9375 -20.144531 4.328125 -20.367188 4.765625 -20.484375 C 5.203125 -20.597656 5.722656 -20.65625 6.328125 -20.65625 C 8.140625 -20.65625 9.414062 -20.34375 10.15625 -19.71875 C 10.894531 -19.101562 11.265625 -18.132812 11.265625 -16.8125 L 11.296875 -9.828125 C 11.296875 -9.367188 11.296875 -9.03125 11.296875 -8.8125 C 11.296875 -8.59375 11.316406 -8.320312 11.359375 -8 C 11.410156 -7.6875 11.472656 -7.457031 11.546875 -7.3125 C 11.617188 -7.175781 11.71875 -7.023438 11.84375 -6.859375 C 11.976562 -6.703125 12.148438 -6.59375 12.359375 -6.53125 C 12.578125 -6.476562 12.847656 -6.453125 13.171875 -6.453125 C 14.035156 -6.453125 14.570312 -6.691406 14.78125 -7.171875 C 15 -7.648438 15.109375 -8.519531 15.109375 -9.78125 L 15.15625 -16.8125 C 15.15625 -17.695312 15.304688 -18.414062 15.609375 -18.96875 C 15.910156 -19.519531 16.421875 -19.9375 17.140625 -20.21875 C 17.867188 -20.507812 18.851562 -20.65625 20.09375 -20.65625 C 20.84375 -20.65625 21.484375 -20.53125 22.015625 -20.28125 C 22.554688 -20.039062 22.984375 -19.722656 23.296875 -19.328125 C 23.617188 -18.941406 23.859375 -18.363281 24.015625 -17.59375 C 24.171875 -16.832031 24.273438 -16.0625 24.328125 -15.28125 C 24.390625 -14.507812 24.421875 -13.488281 24.421875 -12.21875 Z M 24.421875 -12.21875 "/></g></g></g><g fill="#5b5353" fill-opacity="1"><g transform="translate(123.766052, 284.690108)"><g><path d="M 7 -4.359375 C 7.445312 -4.304688 7.851562 -4.078125 8.21875 -3.671875 C 8.59375 -3.273438 8.78125 -2.757812 8.78125 -2.125 C 8.78125 -1.519531 8.734375 -1.066406 8.640625 -0.765625 C 8.554688 -0.472656 8.410156 -0.269531 8.203125 -0.15625 C 7.992188 -0.0507812 7.671875 0 7.234375 0 C 6.890625 0 6.601562 -0.046875 6.375 -0.140625 C 6.15625 -0.242188 5.992188 -0.390625 5.890625 -0.578125 C 5.785156 -0.765625 5.734375 -1.007812 5.734375 -1.3125 C 5.734375 -1.695312 5.71875 -2.019531 5.6875 -2.28125 C 5.65625 -2.539062 5.613281 -2.75 5.5625 -2.90625 C 5.519531 -3.0625 5.445312 -3.175781 5.34375 -3.25 C 5.25 -3.332031 5.15625 -3.382812 5.0625 -3.40625 C 4.96875 -3.425781 4.84375 -3.4375 4.6875 -3.4375 L 3.984375 -3.4375 L 3.984375 -1.96875 C 3.984375 -1.257812 3.84375 -0.753906 3.5625 -0.453125 C 3.289062 -0.148438 2.894531 0 2.375 0 C 1.851562 0 1.472656 -0.140625 1.234375 -0.421875 C 0.992188 -0.710938 0.875 -1.195312 0.875 -1.875 L 0.875 -7.390625 C 0.875 -7.953125 0.976562 -8.367188 1.1875 -8.640625 C 1.394531 -8.921875 1.734375 -9.0625 2.203125 -9.0625 C 2.472656 -9.0625 2.695312 -9.039062 2.875 -9 C 3.0625 -8.96875 3.238281 -8.90625 3.40625 -8.8125 C 3.582031 -8.726562 3.710938 -8.585938 3.796875 -8.390625 C 3.878906 -8.191406 3.921875 -7.9375 3.921875 -7.625 C 3.921875 -7.351562 3.914062 -7.046875 3.90625 -6.703125 C 3.90625 -6.359375 3.90625 -6.117188 3.90625 -5.984375 C 3.90625 -5.867188 3.929688 -5.769531 3.984375 -5.6875 C 4.046875 -5.613281 4.132812 -5.550781 4.25 -5.5 C 4.375 -5.445312 4.523438 -5.421875 4.703125 -5.421875 C 5.078125 -5.421875 5.328125 -5.570312 5.453125 -5.875 C 5.585938 -6.175781 5.65625 -6.789062 5.65625 -7.71875 C 5.65625 -8.175781 5.773438 -8.515625 6.015625 -8.734375 C 6.265625 -8.953125 6.664062 -9.0625 7.21875 -9.0625 C 7.800781 -9.0625 8.191406 -8.945312 8.390625 -8.71875 C 8.597656 -8.488281 8.703125 -8.078125 8.703125 -7.484375 C 8.703125 -6.515625 8.53125 -5.765625 8.1875 -5.234375 C 7.851562 -4.703125 7.457031 -4.410156 7 -4.359375 Z M 7 -4.359375 "/></g></g></g><g fill="#5b5353" fill-opacity="1"><g transform="translate(143.895805, 284.690108)"><g><path d="M 3.96875 -1.984375 C 3.96875 -1.296875 3.835938 -0.789062 3.578125 -0.46875 C 3.328125 -0.15625 2.941406 0 2.421875 0 C 1.910156 0 1.53125 -0.132812 1.28125 -0.40625 C 1.039062 -0.6875 0.921875 -1.175781 0.921875 -1.875 L 0.921875 -7.484375 C 0.921875 -8.535156 1.421875 -9.0625 2.421875 -9.0625 C 2.929688 -9.0625 3.316406 -8.960938 3.578125 -8.765625 C 3.835938 -8.578125 3.96875 -8.1875 3.96875 -7.59375 Z M 3.96875 -1.984375 "/></g></g></g><g fill="#5b5353" fill-opacity="1"><g transform="translate(159.302284, 284.690108)"><g><path d="M 6.515625 -1.984375 C 6.515625 -1.484375 6.453125 -1.082031 6.328125 -0.78125 C 6.203125 -0.488281 6.03125 -0.285156 5.8125 -0.171875 C 5.601562 -0.0546875 5.320312 0 4.96875 0 C 4.445312 0 4.066406 -0.132812 3.828125 -0.40625 C 3.597656 -0.6875 3.476562 -1.179688 3.46875 -1.890625 L 3.4375 -6.78125 L 2.3125 -6.78125 C 1.757812 -6.78125 1.34375 -6.867188 1.0625 -7.046875 C 0.789062 -7.222656 0.65625 -7.535156 0.65625 -7.984375 C 0.65625 -8.253906 0.707031 -8.46875 0.8125 -8.625 C 0.925781 -8.78125 1.09375 -8.890625 1.3125 -8.953125 C 1.53125 -9.023438 1.828125 -9.0625 2.203125 -9.0625 L 7.859375 -9.0625 C 8.359375 -9.0625 8.71875 -8.972656 8.9375 -8.796875 C 9.15625 -8.617188 9.265625 -8.316406 9.265625 -7.890625 C 9.265625 -7.597656 9.195312 -7.367188 9.0625 -7.203125 C 8.9375 -7.046875 8.769531 -6.9375 8.5625 -6.875 C 8.351562 -6.8125 8.078125 -6.78125 7.734375 -6.78125 L 6.515625 -6.78125 Z M 6.515625 -1.984375 "/></g></g></g><g fill="#5b5353" fill-opacity="1"><g transform="translate(179.643715, 284.690108)"><g><path d="M 6.265625 -6.578125 C 6.265625 -6.765625 6.1875 -6.921875 6.03125 -7.046875 C 5.875 -7.179688 5.691406 -7.25 5.484375 -7.25 C 5.054688 -7.25 4.703125 -7.007812 4.421875 -6.53125 C 4.148438 -6.050781 4.015625 -5.503906 4.015625 -4.890625 C 4.015625 -4.421875 4.101562 -4 4.28125 -3.625 C 4.457031 -3.257812 4.710938 -2.960938 5.046875 -2.734375 C 5.390625 -2.515625 5.78125 -2.40625 6.21875 -2.40625 C 6.539062 -2.40625 6.851562 -2.46875 7.15625 -2.59375 C 7.457031 -2.726562 7.703125 -2.867188 7.890625 -3.015625 C 8.078125 -3.171875 8.269531 -3.3125 8.46875 -3.4375 C 8.664062 -3.570312 8.835938 -3.640625 8.984375 -3.640625 C 9.179688 -3.640625 9.347656 -3.5625 9.484375 -3.40625 C 9.628906 -3.25 9.703125 -3.085938 9.703125 -2.921875 C 9.703125 -2.734375 9.644531 -2.515625 9.53125 -2.265625 C 9.425781 -2.023438 9.253906 -1.765625 9.015625 -1.484375 C 8.773438 -1.210938 8.492188 -0.957031 8.171875 -0.71875 C 7.859375 -0.488281 7.460938 -0.296875 6.984375 -0.140625 C 6.515625 0.015625 6.019531 0.09375 5.5 0.09375 C 4.8125 0.09375 4.175781 -0.0078125 3.59375 -0.21875 C 3.007812 -0.425781 2.5 -0.722656 2.0625 -1.109375 C 1.632812 -1.492188 1.296875 -1.972656 1.046875 -2.546875 C 0.796875 -3.128906 0.671875 -3.785156 0.671875 -4.515625 C 0.671875 -5.941406 1.097656 -7.066406 1.953125 -7.890625 C 2.816406 -8.722656 3.9375 -9.140625 5.3125 -9.140625 C 6.019531 -9.140625 6.671875 -9.019531 7.265625 -8.78125 C 7.867188 -8.550781 8.347656 -8.222656 8.703125 -7.796875 C 9.054688 -7.367188 9.234375 -6.90625 9.234375 -6.40625 C 9.234375 -5.820312 9.039062 -5.289062 8.65625 -4.8125 C 8.269531 -4.34375 7.765625 -4.109375 7.140625 -4.109375 C 6.796875 -4.109375 6.476562 -4.207031 6.1875 -4.40625 C 5.90625 -4.601562 5.765625 -4.878906 5.765625 -5.234375 C 5.765625 -5.410156 5.847656 -5.644531 6.015625 -5.9375 C 6.179688 -6.238281 6.265625 -6.453125 6.265625 -6.578125 Z M 6.265625 -6.578125 "/></g></g></g><g fill="#5b5353" fill-opacity="1"><g transform="translate(200.593748, 284.690108)"><g><path d="M 9.5625 -1.984375 C 9.5625 -1.265625 9.429688 -0.753906 9.171875 -0.453125 C 8.921875 -0.148438 8.535156 0 8.015625 0 C 7.503906 0 7.128906 -0.132812 6.890625 -0.40625 C 6.648438 -0.6875 6.53125 -1.179688 6.53125 -1.890625 L 6.53125 -3.390625 L 3.828125 -3.390625 L 3.828125 -1.984375 C 3.828125 -1.265625 3.703125 -0.753906 3.453125 -0.453125 C 3.203125 -0.148438 2.8125 0 2.28125 0 C 1.769531 0 1.394531 -0.132812 1.15625 -0.40625 C 0.914062 -0.6875 0.796875 -1.179688 0.796875 -1.890625 L 0.75 -7.484375 C 0.75 -8.023438 0.890625 -8.421875 1.171875 -8.671875 C 1.453125 -8.929688 1.820312 -9.0625 2.28125 -9.0625 C 2.8125 -9.0625 3.203125 -8.960938 3.453125 -8.765625 C 3.703125 -8.578125 3.828125 -8.1875 3.828125 -7.59375 L 3.828125 -5.375 L 6.515625 -5.375 L 6.515625 -7.484375 C 6.515625 -7.847656 6.582031 -8.148438 6.71875 -8.390625 C 6.851562 -8.640625 7.023438 -8.8125 7.234375 -8.90625 C 7.453125 -9.007812 7.710938 -9.0625 8.015625 -9.0625 C 8.523438 -9.0625 8.910156 -8.960938 9.171875 -8.765625 C 9.429688 -8.578125 9.5625 -8.1875 9.5625 -7.59375 Z M 9.5625 -1.984375 "/></g></g></g><g fill="#5b5353" fill-opacity="1"><g transform="translate(221.504094, 284.690108)"><g><path d="M 6.234375 -5.375 C 6.703125 -5.375 7.03125 -5.296875 7.21875 -5.140625 C 7.40625 -4.992188 7.5 -4.738281 7.5 -4.375 C 7.5 -4.082031 7.382812 -3.867188 7.15625 -3.734375 C 6.9375 -3.609375 6.585938 -3.546875 6.109375 -3.546875 L 3.96875 -3.546875 L 3.96875 -2.140625 L 6.84375 -2.125 C 7.332031 -2.125 7.6875 -2.050781 7.90625 -1.90625 C 8.125 -1.757812 8.234375 -1.503906 8.234375 -1.140625 C 8.234375 -0.710938 8.109375 -0.414062 7.859375 -0.25 C 7.609375 -0.0820312 7.222656 0 6.703125 0 L 2.421875 0 C 1.898438 0 1.515625 -0.132812 1.265625 -0.40625 C 1.023438 -0.6875 0.90625 -1.179688 0.90625 -1.890625 L 0.90625 -7.484375 C 0.90625 -8.535156 1.410156 -9.0625 2.421875 -9.0625 L 6.703125 -9.0625 C 7.222656 -9.0625 7.609375 -8.984375 7.859375 -8.828125 C 8.109375 -8.671875 8.234375 -8.382812 8.234375 -7.96875 C 8.234375 -7.582031 8.125 -7.3125 7.90625 -7.15625 C 7.6875 -7 7.332031 -6.921875 6.84375 -6.921875 L 3.953125 -6.921875 L 3.953125 -5.375 Z M 6.234375 -5.375 "/></g></g></g><g fill="#5b5353" fill-opacity="1"><g transform="translate(240.985554, 284.690108)"><g><path d="M 9.34375 -1.25 C 9.34375 -0.863281 9.226562 -0.554688 9 -0.328125 C 8.769531 -0.109375 8.4375 0 8 0 C 7.882812 0 7.769531 -0.0078125 7.65625 -0.03125 C 7.539062 -0.0625 7.414062 -0.113281 7.28125 -0.1875 C 7.15625 -0.257812 7.039062 -0.320312 6.9375 -0.375 C 6.84375 -0.4375 6.722656 -0.53125 6.578125 -0.65625 C 6.429688 -0.789062 6.316406 -0.894531 6.234375 -0.96875 C 6.148438 -1.039062 6.019531 -1.160156 5.84375 -1.328125 C 5.664062 -1.503906 5.539062 -1.628906 5.46875 -1.703125 L 3.046875 -4 L 3.046875 -1.125 C 3.046875 -0.6875 2.960938 -0.390625 2.796875 -0.234375 C 2.628906 -0.078125 2.375 0 2.03125 0 C 1.632812 0 1.34375 -0.0859375 1.15625 -0.265625 C 0.976562 -0.441406 0.890625 -0.738281 0.890625 -1.15625 L 0.890625 -7.546875 C 0.890625 -8.046875 1.015625 -8.421875 1.265625 -8.671875 C 1.523438 -8.929688 1.894531 -9.0625 2.375 -9.0625 C 2.695312 -9.0625 2.957031 -9.007812 3.15625 -8.90625 C 3.351562 -8.8125 3.585938 -8.628906 3.859375 -8.359375 L 7.21875 -5.03125 L 7.21875 -7.921875 C 7.21875 -8.296875 7.3125 -8.578125 7.5 -8.765625 C 7.6875 -8.953125 7.941406 -9.046875 8.265625 -9.046875 C 8.648438 -9.046875 8.925781 -8.957031 9.09375 -8.78125 C 9.257812 -8.601562 9.34375 -8.316406 9.34375 -7.921875 Z M 9.34375 -1.25 "/></g></g></g><g clip-path="url(#ddd2c61692)"><path fill="#00bf63" d="M 172.90625 118.625 L 186.292969 118.625 L 186.292969 132.007812 L 172.90625 132.007812 Z M 242.25 109.296875 L 247.917969 109.296875 L 247.917969 135.664062 L 264.960938 149.050781 L 264.960938 155.960938 L 247.917969 142.976562 L 247.917969 174.179688 C 249.128906 174.179688 250.367188 174.984375 251.574219 175.386719 L 252.382812 175.789062 L 253.589844 177 L 255.199219 178.609375 L 256.007812 179.816406 L 256.410156 179.816406 L 257.214844 181.429688 L 257.214844 181.832031 L 257.617188 181.832031 L 257.617188 182.234375 L 258.019531 183.039062 L 258.421875 183.847656 L 258.421875 184.652344 L 258.824219 185.054688 L 258.824219 185.457031 L 259.226562 186.664062 L 259.226562 188.277344 L 259.632812 189.082031 L 259.632812 190.695312 C 259.632812 192.304688 259.632812 192.304688 259.632812 193.140625 C 259.632812 193.140625 259.632812 193.140625 259.632812 193.542969 L 259.226562 194.753906 L 259.226562 196.363281 L 258.824219 197.570312 L 258.824219 197.976562 L 258.019531 199.585938 L 258.019531 199.988281 L 257.617188 200.792969 L 257.617188 201.199219 L 257.214844 201.199219 L 257.214844 201.601562 L 256.8125 202.003906 L 256.8125 202.40625 L 256.410156 203.210938 L 256.007812 203.210938 L 255.601562 204.015625 L 255.199219 204.417969 L 254.796875 205.226562 L 254.425781 205.226562 L 253.621094 206.433594 L 253.21875 206.835938 L 252.816406 206.835938 L 252.410156 207.238281 L 252.007812 207.640625 L 251.605469 207.640625 L 251.605469 208.046875 L 251.203125 208.046875 L 249.996094 208.449219 L 249.59375 208.851562 L 248.785156 209.253906 L 247.578125 209.253906 L 247.175781 209.65625 L 245.160156 209.65625 C 245.160156 209.65625 245.160156 209.65625 244.757812 209.65625 L 243.148438 209.65625 L 242.746094 209.253906 L 241.535156 209.253906 L 241.132812 208.851562 L 240.328125 208.851562 L 239.925781 208.449219 L 239.523438 208.449219 L 239.121094 208.046875 L 238.71875 208.046875 L 234.285156 203.613281 L 233.480469 202.40625 L 233.078125 201.601562 L 232.273438 199.585938 L 231.871094 198.78125 L 231.871094 198.378906 L 231.464844 198.378906 L 231.464844 197.570312 L 231.0625 196.363281 L 231.0625 195.15625 L 230.660156 194.351562 L 230.660156 190.289062 C 230.660156 190.289062 230.660156 190.289062 230.660156 189.886719 L 231.0625 188.679688 L 231.0625 186.757812 L 231.464844 185.953125 L 231.464844 185.550781 L 231.871094 184.34375 L 232.273438 183.9375 L 232.273438 183.132812 L 232.675781 182.730469 L 233.078125 181.523438 L 233.882812 180.71875 L 233.882812 180.253906 L 234.285156 179.847656 L 234.285156 179.445312 L 235.089844 178.640625 L 235.898438 177.835938 L 236.300781 177.03125 L 236.703125 177.03125 L 237.105469 176.625 L 237.910156 175.820312 L 238.3125 175.820312 L 238.71875 175.417969 C 239.925781 174.613281 241.164062 174.210938 242.371094 174.210938 L 242.371094 138.546875 L 187.5 94.300781 L 132.75 138.484375 L 132.75 173.777344 C 136.40625 174.582031 140.0625 176.625 141.269531 180.6875 L 141.671875 181.492188 L 141.671875 181.894531 L 142.078125 181.894531 L 142.078125 183.90625 L 142.480469 207.023438 C 142.480469 207.023438 142.078125 207.425781 142.078125 207.828125 L 141.671875 208.632812 L 141.269531 209.035156 L 140.464844 209.84375 L 140.0625 209.84375 L 137.613281 209.4375 L 136.40625 208.632812 L 136.40625 208.230469 L 136.003906 207.828125 L 136.003906 207.425781 L 135.601562 206.621094 C 135.601562 206.21875 135.601562 206.21875 135.601562 206.21875 L 135.601562 189.175781 C 135.601562 187.5625 135.601562 187.160156 134.390625 187.160156 C 132.378906 187.160156 132.78125 190.414062 132.78125 192.429688 L 132.78125 207.828125 L 132.378906 208.632812 L 131.574219 209.4375 L 131.171875 209.4375 L 130.765625 209.84375 L 128.753906 209.84375 L 128.351562 209.4375 L 127.949219 209.4375 L 127.542969 209.035156 L 126.738281 208.230469 L 126.738281 207.023438 L 126.335938 207.023438 L 126.335938 189.175781 C 126.335938 187.5625 126.335938 187.160156 125.128906 187.160156 C 123.917969 187.160156 123.515625 187.96875 123.515625 189.175781 L 123.515625 205.8125 C 123.515625 207.023438 123.917969 207.828125 123.113281 208.664062 L 121.90625 209.46875 L 121.503906 209.875 C 121.101562 209.875 120.699219 209.875 120.292969 209.875 L 119.085938 209.875 L 119.085938 209.46875 L 118.683594 209.46875 L 117.878906 208.261719 L 117.476562 207.859375 L 117.476562 207.054688 L 117.070312 206.246094 L 117.070312 186.757812 L 117.476562 184.746094 L 117.476562 182.328125 L 117.878906 181.925781 L 117.878906 180.6875 L 118.28125 180.6875 C 119.488281 177.03125 123.144531 174.613281 126.800781 173.777344 L 126.800781 142.976562 L 110.039062 155.929688 L 110.039062 149.019531 L 126.675781 135.632812 L 126.675781 109.296875 L 132.75 109.296875 L 132.75 130.800781 L 187.5 86.988281 L 242.25 130.800781 Z M 152.609375 200.144531 L 224.402344 200.144531 L 224 199.339844 C 223.597656 194.875 222.789062 191.21875 221.148438 187.5625 C 219.539062 183.503906 217.089844 180.253906 214.238281 177.433594 C 210.984375 174.179688 207.761719 171.761719 203.703125 169.71875 C 200.046875 168.105469 195.585938 166.867188 191.125 166.464844 L 190.722656 166.0625 L 191.125 166.0625 L 191.125 165.660156 C 191.125 165.253906 191.125 165.253906 191.125 165.253906 L 191.125 164.851562 C 191.527344 164.851562 191.527344 164.449219 191.527344 164.449219 C 191.527344 164.046875 191.125 163.644531 191.125 163.242188 C 191.125 162.839844 190.722656 162.4375 190.320312 162.4375 C 190.320312 162.03125 189.917969 161.628906 189.511719 161.628906 C 189.109375 161.628906 188.707031 161.628906 188.304688 161.628906 C 187.902344 161.628906 187.5 161.628906 187.097656 161.628906 C 186.695312 161.628906 186.695312 162.03125 186.292969 162.4375 C 185.886719 162.4375 185.886719 162.839844 185.484375 163.242188 C 185.484375 163.644531 185.484375 164.046875 185.484375 164.449219 L 185.484375 165.253906 C 185.484375 165.253906 185.484375 165.253906 185.484375 165.660156 L 185.886719 165.660156 L 185.886719 166.464844 C 185.484375 166.464844 185.484375 166.464844 185.484375 166.464844 C 181.023438 166.867188 176.964844 168.074219 172.90625 169.71875 C 169.25 171.730469 165.59375 174.179688 162.371094 177.433594 C 159.921875 180.28125 157.507812 183.503906 155.894531 187.5625 C 153.882812 191.21875 153.046875 194.875 152.640625 199.339844 L 152.640625 200.144531 Z M 217.925781 196.085938 C 217.925781 195.28125 217.523438 194.070312 217.121094 192.832031 C 216.71875 192.027344 216.316406 190.816406 215.914062 189.980469 C 215.105469 188.371094 214.300781 186.726562 213.464844 185.117188 C 212.257812 183.90625 211.449219 182.667969 210.210938 181.460938 C 209.808594 181.058594 209.40625 180.65625 209.003906 180.253906 C 209.003906 180.253906 208.601562 179.847656 208.195312 179.445312 C 207.792969 179.042969 207.390625 178.238281 208.195312 177.433594 C 208.601562 177.03125 209.40625 177.03125 210.210938 177.433594 C 210.210938 177.835938 210.613281 177.835938 211.015625 178.238281 C 211.417969 178.640625 211.824219 179.042969 212.226562 179.445312 C 213.433594 180.65625 214.671875 182.296875 215.882812 183.90625 C 216.6875 185.117188 217.492188 186.757812 218.328125 188.773438 C 219.132812 189.578125 219.539062 190.785156 219.941406 192.027344 C 220.34375 193.234375 220.34375 194.472656 220.746094 195.683594 C 220.746094 196.488281 220.34375 197.292969 219.539062 197.292969 C 218.730469 197.292969 217.925781 196.890625 217.925781 196.085938 Z M 202.496094 175.789062 C 202.09375 175.386719 201.691406 175.386719 201.289062 174.984375 C 200.480469 174.582031 200.078125 173.777344 200.480469 172.96875 C 200.886719 172.566406 201.691406 172.164062 202.496094 172.566406 C 202.898438 172.566406 203.300781 172.96875 204.105469 172.96875 C 204.511719 173.375 204.914062 173.777344 205.316406 174.179688 C 206.121094 174.582031 206.121094 175.386719 205.71875 175.789062 C 205.316406 176.597656 204.511719 177 204.105469 176.597656 C 203.300781 176.222656 202.898438 175.789062 202.496094 175.789062 Z M 131.945312 209.066406 Z M 117.753906 208.261719 Z M 236.175781 177.03125 Z M 257.648438 201.351562 Z M 230.476562 194.472656 Z M 148.984375 204.203125 L 226.042969 204.203125 L 226.042969 209.875 L 148.984375 209.875 Z M 190.351562 135.261719 L 203.734375 135.261719 L 203.734375 148.648438 L 190.351562 148.648438 Z M 172.90625 135.261719 L 186.292969 135.261719 L 186.292969 148.648438 L 172.90625 148.648438 Z M 190.351562 118.625 L 203.734375 118.625 L 203.734375 132.007812 L 190.351562 132.007812 Z M 190.351562 118.625 " fill-opacity="1" fill-rule="nonzero"/></g></svg>