<svg xmlns="http://www.w3.org/2000/svg" xmlns:xlink="http://www.w3.org/1999/xlink" width="500" zoomAndPan="magnify" viewBox="0 0 375 60" height="80" preserveAspectRatio="xMidYMid meet" version="1.0"><defs><g/><clipPath id="8255616f4c"><path d="M 253.453125 0 L 286.453125 0 L 286.453125 48 L 253.453125 48 Z M 253.453125 0 " clip-rule="nonzero"/></clipPath><clipPath id="192290ce75"><path d="M 265.695312 17 L 275 17 L 275 28 L 265.695312 28 Z M 265.695312 17 " clip-rule="nonzero"/></clipPath><clipPath id="fadf0974eb"><path d="M 271 25 L 283.695312 25 L 283.695312 42.949219 L 271 42.949219 Z M 271 25 " clip-rule="nonzero"/></clipPath><clipPath id="c2f528e973"><path d="M 268 25 L 279 25 L 279 42.949219 L 268 42.949219 Z M 268 25 " clip-rule="nonzero"/></clipPath><clipPath id="359899fb83"><path d="M 276 17 L 283.695312 17 L 283.695312 27 L 276 27 Z M 276 17 " clip-rule="nonzero"/></clipPath><clipPath id="ab54f7a302"><path d="M 275 30 L 283.695312 30 L 283.695312 42.949219 L 275 42.949219 Z M 275 30 " clip-rule="nonzero"/></clipPath><clipPath id="b1c988d22b"><path d="M 265.695312 17 L 275 17 L 275 29 L 265.695312 29 Z M 265.695312 17 " clip-rule="nonzero"/></clipPath><clipPath id="02ee075e37"><path d="M 268 25 L 279 25 L 279 42.949219 L 268 42.949219 Z M 268 25 " clip-rule="nonzero"/></clipPath><clipPath id="ff0ba6b29d"><path d="M 276 17 L 283.695312 17 L 283.695312 27 L 276 27 Z M 276 17 " clip-rule="nonzero"/></clipPath></defs><g clip-path="url(#8255616f4c)"><path fill="#ffffff" d="M 281.941406 10.496094 L 278.945312 10.496094 L 278.945312 3 C 278.945312 2.554688 278.753906 2.15625 278.445312 1.882812 C 277.796875 0.757812 276.585938 0 275.195312 0 C 274.582031 0 273.972656 0.152344 273.433594 0.4375 L 254.25 10.671875 C 253.746094 10.941406 253.457031 11.496094 253.457031 11.996094 L 253.457031 43.480469 C 253.457031 45.957031 255.476562 47.976562 257.953125 47.976562 L 281.941406 47.976562 C 284.421875 47.976562 286.441406 45.957031 286.441406 43.480469 L 286.441406 14.992188 C 286.441406 12.511719 284.421875 10.496094 281.941406 10.496094 Z M 256.457031 43.480469 L 256.457031 13.492188 L 262.453125 13.492188 L 262.453125 44.976562 L 257.953125 44.976562 C 257.128906 44.976562 256.457031 44.304688 256.457031 43.480469 Z M 283.441406 43.480469 C 283.441406 44.304688 282.769531 44.976562 281.941406 44.976562 L 265.453125 44.976562 L 265.453125 13.492188 L 281.941406 13.492188 C 282.769531 13.492188 283.441406 14.164062 283.441406 14.992188 Z M 283.441406 43.480469 " fill-opacity="1" fill-rule="nonzero"/></g><g fill="#ffffff" fill-opacity="1"><g transform="translate(62.923584, 41.299424)"><g><path d="M 17.492188 -38.863281 C 17.492188 -39.246094 17.363281 -39.535156 17.109375 -39.757812 C 16.820312 -39.949219 16.433594 -40.046875 15.921875 -40.046875 C 15.441406 -40.046875 15.058594 -39.917969 14.769531 -39.695312 C 14.449219 -39.4375 14.289062 -39.054688 14.257812 -38.574219 C 14.226562 -24.21875 14.226562 -13.488281 14.226562 -6.3125 L 14.226562 -6.152344 C 14.226562 -6.085938 14.226562 -6.023438 14.257812 -5.894531 C 14.226562 -5.605469 14.128906 -5.316406 13.96875 -4.996094 C 13.808594 -4.675781 13.550781 -4.390625 13.230469 -4.132812 C 12.878906 -3.84375 12.460938 -3.621094 11.980469 -3.492188 C 11.46875 -3.332031 10.988281 -3.269531 10.476562 -3.269531 C 9.933594 -3.269531 9.417969 -3.332031 8.9375 -3.460938 C 8.425781 -3.589844 7.976562 -3.75 7.65625 -4.003906 C 7.335938 -4.230469 7.046875 -4.515625 6.855469 -4.902344 C 6.632812 -5.253906 6.535156 -5.800781 6.535156 -6.535156 L 6.535156 -21.976562 C 6.535156 -22.203125 6.40625 -22.425781 6.214844 -22.652344 C 5.992188 -22.875 5.636719 -23.003906 5.125 -23.066406 C 4.613281 -23.132812 4.164062 -23.035156 3.84375 -22.777344 C 3.523438 -22.523438 3.332031 -22.234375 3.269531 -21.851562 L 3.269531 -6.535156 C 3.269531 -5.382812 3.492188 -4.324219 3.972656 -3.429688 C 4.453125 -2.53125 5.0625 -1.824219 5.800781 -1.3125 C 6.503906 -0.800781 7.273438 -0.449219 8.105469 -0.289062 C 8.90625 -0.0976562 9.707031 0 10.476562 0 C 11.308594 0 12.140625 -0.128906 12.976562 -0.382812 C 13.808594 -0.609375 14.546875 -0.992188 15.25 -1.539062 C 15.890625 -2.050781 16.433594 -2.722656 16.882812 -3.554688 C 17.269531 -4.324219 17.492188 -5.15625 17.492188 -6.085938 Z M 19.960938 -33.734375 C 19.925781 -33.734375 19.894531 -33.769531 19.894531 -33.769531 L 19.863281 -33.769531 C 19.832031 -33.769531 19.800781 -33.734375 19.734375 -33.734375 L 19.703125 -33.734375 C 19.671875 -33.734375 19.671875 -33.703125 19.671875 -33.703125 C 19.640625 -33.671875 19.605469 -33.671875 19.605469 -33.671875 C 19.574219 -33.640625 19.542969 -33.609375 19.542969 -33.574219 C 19.542969 -33.542969 19.511719 -33.511719 19.511719 -33.511719 L 19.511719 -5.542969 C 19.445312 -4.292969 19.160156 -3.203125 18.613281 -2.273438 C 18.039062 -1.3125 17.332031 -0.542969 16.5 0.0976562 C 15.601562 0.738281 14.640625 1.21875 13.585938 1.503906 C 12.496094 1.824219 11.4375 1.988281 10.347656 1.921875 C 8.617188 1.859375 6.953125 1.410156 5.351562 0.578125 C 3.75 -0.257812 2.691406 -1.472656 2.179688 -3.074219 L 2.179688 -3.109375 L 2.148438 -3.140625 C 2.113281 -3.140625 2.113281 -3.171875 2.113281 -3.203125 L 2.050781 -3.269531 C 2.019531 -3.269531 1.988281 -3.300781 1.988281 -3.300781 C 1.921875 -3.300781 1.890625 -3.332031 1.890625 -3.332031 L 1.730469 -3.332031 L 1.664062 -3.269531 C 1.632812 -3.269531 1.601562 -3.234375 1.601562 -3.234375 L 1.539062 -3.171875 C 1.539062 -3.109375 1.503906 -3.074219 1.503906 -3.074219 L 1.503906 -2.914062 C 2.082031 -1.121094 3.269531 0.222656 4.996094 1.121094 C 6.695312 2.050781 8.457031 2.53125 10.316406 2.59375 C 10.445312 2.628906 10.574219 2.628906 10.699219 2.628906 C 11.726562 2.628906 12.75 2.46875 13.777344 2.179688 C 14.929688 1.859375 15.953125 1.34375 16.882812 0.640625 C 17.8125 -0.0625 18.582031 -0.929688 19.191406 -1.953125 C 19.800781 -2.980469 20.121094 -4.195312 20.183594 -5.542969 L 20.183594 -33.480469 C 20.152344 -33.511719 20.152344 -33.542969 20.152344 -33.574219 C 20.121094 -33.574219 20.121094 -33.609375 20.121094 -33.640625 L 20.054688 -33.703125 C 20.023438 -33.703125 19.992188 -33.734375 19.960938 -33.734375 Z M 19.960938 -33.734375 "/></g></g></g><g fill="#ffffff" fill-opacity="1"><g transform="translate(83.939592, 41.299424)"><g><path d="M 18.550781 -22.425781 C 18.550781 -23.257812 17.972656 -23.644531 16.851562 -23.613281 C 15.699219 -23.546875 15.1875 -23.066406 15.3125 -22.171875 L 15.21875 -9.097656 C 15.21875 -8.617188 15.027344 -8.296875 14.640625 -8.105469 C 14.226562 -7.914062 13.90625 -8.074219 13.648438 -8.617188 C 11.179688 -14.832031 9.355469 -19.511719 8.136719 -22.652344 L 8.074219 -22.84375 C 8.007812 -22.90625 7.976562 -22.9375 7.945312 -23.003906 C 7.847656 -23.097656 7.753906 -23.195312 7.65625 -23.292969 C 7.527344 -23.386719 7.433594 -23.453125 7.335938 -23.515625 C 7.207031 -23.578125 7.082031 -23.613281 6.953125 -23.644531 C 6.792969 -23.644531 6.664062 -23.675781 6.535156 -23.675781 L 4.675781 -23.675781 C 4.613281 -23.675781 4.550781 -23.644531 4.484375 -23.644531 C 4.355469 -23.578125 4.230469 -23.515625 4.132812 -23.484375 C 4.003906 -23.417969 3.875 -23.324219 3.78125 -23.257812 C 3.652344 -23.132812 3.589844 -23.035156 3.523438 -22.9375 C 3.429688 -22.8125 3.363281 -22.683594 3.332031 -22.554688 C 3.269531 -22.425781 3.269531 -22.296875 3.269531 -22.171875 C 3.269531 -22.011719 3.269531 -21.882812 3.300781 -21.753906 C 3.269531 -12.558594 3.269531 -5.671875 3.269531 -1.058594 C 3.269531 -0.800781 3.394531 -0.609375 3.683594 -0.417969 C 3.941406 -0.222656 4.355469 -0.128906 4.871094 -0.128906 C 5.351562 -0.0976562 5.734375 -0.191406 6.023438 -0.417969 C 6.28125 -0.609375 6.472656 -0.898438 6.535156 -1.21875 L 6.535156 -13.585938 C 6.472656 -14.03125 6.632812 -14.351562 7.046875 -14.511719 C 7.464844 -14.671875 7.785156 -14.511719 8.007812 -14.03125 C 10.253906 -8.296875 11.917969 -4.003906 13.070312 -1.121094 L 13.136719 -0.929688 C 13.136719 -0.863281 13.199219 -0.800781 13.261719 -0.769531 C 13.328125 -0.640625 13.425781 -0.542969 13.550781 -0.480469 C 13.617188 -0.382812 13.746094 -0.320312 13.871094 -0.257812 C 14 -0.191406 14.128906 -0.128906 14.257812 -0.128906 C 14.386719 -0.0976562 14.511719 -0.0976562 14.671875 -0.0976562 L 17.011719 -0.0976562 C 17.074219 -0.0976562 17.171875 -0.0976562 17.238281 -0.128906 C 17.332031 -0.191406 17.460938 -0.222656 17.589844 -0.289062 C 17.71875 -0.351562 17.8125 -0.417969 17.941406 -0.511719 L 18.199219 -0.832031 C 18.261719 -0.960938 18.292969 -1.089844 18.359375 -1.21875 C 18.390625 -1.34375 18.421875 -1.472656 18.453125 -1.601562 C 18.453125 -1.730469 18.421875 -1.890625 18.421875 -2.019531 C 18.484375 -12.207031 18.519531 -19.03125 18.550781 -22.425781 Z M 4.675781 -26.015625 L 4.582031 -26.015625 C 4.261719 -26.015625 3.910156 -25.949219 3.523438 -25.886719 C 3.109375 -25.757812 2.691406 -25.597656 2.308594 -25.34375 C 1.921875 -25.085938 1.570312 -24.734375 1.3125 -24.285156 C 0.992188 -23.804688 0.832031 -23.257812 0.832031 -22.617188 L 0.832031 4.195312 C 0.832031 4.261719 0.863281 4.292969 0.863281 4.292969 L 0.929688 4.355469 C 0.929688 4.390625 0.929688 4.421875 0.992188 4.421875 C 0.992188 4.421875 1.023438 4.453125 1.058594 4.453125 L 1.21875 4.453125 C 1.21875 4.453125 1.25 4.453125 1.3125 4.421875 C 1.3125 4.421875 1.34375 4.421875 1.378906 4.390625 L 1.441406 4.324219 C 1.441406 4.324219 1.441406 4.292969 1.472656 4.261719 C 1.472656 4.261719 1.472656 4.230469 1.503906 4.164062 L 1.503906 -22.585938 C 1.503906 -23.132812 1.632812 -23.578125 1.890625 -23.933594 C 2.082031 -24.253906 2.371094 -24.539062 2.691406 -24.765625 C 3.011719 -24.957031 3.332031 -25.117188 3.714844 -25.214844 C 4.070312 -25.308594 4.390625 -25.34375 4.675781 -25.34375 L 6.535156 -25.34375 C 7.6875 -25.34375 8.488281 -25.117188 8.96875 -24.667969 C 9.417969 -24.21875 9.738281 -23.804688 9.933594 -23.417969 L 12.816406 -15.828125 L 12.816406 -15.761719 C 12.816406 -15.761719 12.847656 -15.730469 12.847656 -15.730469 L 12.910156 -15.667969 C 12.910156 -15.632812 12.941406 -15.632812 12.976562 -15.632812 C 12.976562 -15.601562 13.007812 -15.601562 13.039062 -15.601562 C 13.039062 -15.570312 13.070312 -15.570312 13.136719 -15.570312 C 13.136719 -15.570312 13.167969 -15.570312 13.199219 -15.601562 L 13.296875 -15.601562 L 13.359375 -15.667969 L 13.425781 -15.730469 C 13.425781 -15.730469 13.425781 -15.761719 13.457031 -15.792969 L 13.457031 -16.050781 C 12.140625 -19.414062 11.179688 -21.945312 10.539062 -23.675781 C 10.347656 -24.125 9.933594 -24.636719 9.355469 -25.214844 C 8.746094 -25.726562 7.816406 -26.015625 6.535156 -26.015625 Z M 4.675781 -26.015625 "/></g></g></g><g fill="#ffffff" fill-opacity="1"><g transform="translate(105.660404, 41.299424)"><g><path d="M 6.503906 -21.945312 C 6.503906 -22.8125 5.960938 -23.257812 4.933594 -23.257812 L 4.902344 -23.257812 C 3.8125 -23.226562 3.269531 -22.714844 3.269531 -21.691406 C 3.234375 -12.78125 3.234375 -6.085938 3.234375 -1.632812 C 3.234375 -0.992188 3.75 -0.609375 4.835938 -0.542969 L 5.125 -0.542969 C 5.992188 -0.542969 6.441406 -0.929688 6.503906 -1.761719 Z M 1.3125 -27.777344 C 1.25 -27.777344 1.21875 -27.808594 1.21875 -27.808594 L 1.089844 -27.808594 C 1.058594 -27.777344 1.023438 -27.777344 1.023438 -27.777344 L 0.992188 -27.746094 C 0.960938 -27.746094 0.929688 -27.710938 0.929688 -27.710938 C 0.898438 -27.679688 0.898438 -27.648438 0.898438 -27.648438 C 0.863281 -27.617188 0.863281 -27.585938 0.863281 -27.550781 C 0.832031 -27.519531 0.832031 -27.488281 0.832031 -27.488281 L 0.832031 -3.683594 C 0.832031 -3.652344 0.832031 -3.652344 0.863281 -3.652344 C 0.863281 -3.589844 0.863281 -3.554688 0.898438 -3.554688 C 0.898438 -3.523438 0.898438 -3.492188 0.929688 -3.492188 L 0.992188 -3.429688 C 0.992188 -3.394531 1.023438 -3.394531 1.058594 -3.394531 L 1.152344 -3.394531 L 1.183594 -3.363281 C 1.183594 -3.363281 1.21875 -3.394531 1.25 -3.394531 L 1.3125 -3.394531 L 1.441406 -3.523438 C 1.441406 -3.523438 1.472656 -3.554688 1.472656 -3.589844 C 1.472656 -3.589844 1.503906 -3.621094 1.503906 -3.652344 L 1.503906 -27.550781 C 1.503906 -27.550781 1.472656 -27.585938 1.472656 -27.617188 C 1.472656 -27.617188 1.441406 -27.648438 1.441406 -27.679688 L 1.378906 -27.746094 C 1.34375 -27.746094 1.3125 -27.777344 1.3125 -27.777344 Z M 1.3125 -27.777344 "/></g></g></g><g fill="#ffffff" fill-opacity="1"><g transform="translate(115.527676, 41.299424)"><g><path d="M -1.730469 -23.644531 C -2.308594 -23.324219 -2.5625 -22.84375 -2.5625 -22.136719 L -2.5625 -21.976562 C -2.53125 -21.175781 -2.273438 -20.632812 -1.824219 -20.375 L 1.539062 -20.375 C 1.859375 -20.375 2.273438 -20.246094 2.722656 -20.023438 C 3.171875 -19.765625 3.429688 -19.285156 3.429688 -18.519531 L 3.429688 -1.472656 C 3.429688 -1.410156 3.429688 -1.34375 3.460938 -1.28125 C 3.523438 -1.152344 3.554688 -1.023438 3.621094 -0.898438 C 3.683594 -0.769531 3.75 -0.640625 3.84375 -0.578125 C 3.941406 -0.449219 4.035156 -0.382812 4.164062 -0.320312 C 4.292969 -0.222656 4.421875 -0.160156 4.550781 -0.128906 C 4.675781 -0.0625 4.804688 -0.0625 4.933594 -0.0625 C 5.0625 -0.03125 5.191406 -0.03125 5.351562 -0.0625 C 8.296875 -0.0625 10.507812 -0.03125 12.015625 -0.03125 C 12.527344 -0.03125 13.101562 -0.0976562 13.710938 -0.222656 C 14.289062 -0.320312 14.898438 -0.542969 15.472656 -0.929688 C 16.050781 -1.3125 16.53125 -1.824219 16.914062 -2.53125 C 17.300781 -3.171875 17.558594 -3.941406 17.652344 -4.835938 C 17.652344 -4.902344 17.683594 -4.964844 17.683594 -4.996094 L 17.683594 -18.324219 C 17.652344 -18.359375 17.621094 -18.453125 17.621094 -18.582031 C 17.523438 -19.03125 17.398438 -19.542969 17.203125 -20.085938 C 17.011719 -20.601562 16.753906 -21.082031 16.371094 -21.5625 C 15.988281 -22.042969 15.539062 -22.457031 14.992188 -22.8125 C 14.417969 -23.164062 13.808594 -23.417969 13.101562 -23.613281 L 12.941406 -23.613281 C 12.910156 -23.613281 12.816406 -23.644531 12.6875 -23.644531 Z M 8.425781 -3.332031 C 8.234375 -3.332031 7.882812 -3.460938 7.433594 -3.683594 C 6.953125 -3.910156 6.695312 -4.390625 6.695312 -5.15625 L 6.695312 -18.613281 C 6.695312 -18.933594 6.792969 -19.320312 7.046875 -19.734375 C 7.304688 -20.152344 7.722656 -20.375 8.328125 -20.375 L 12.460938 -20.375 C 12.816406 -20.246094 13.101562 -20.152344 13.296875 -20.054688 C 13.488281 -19.925781 13.679688 -19.765625 13.808594 -19.605469 C 13.9375 -19.414062 14.03125 -19.160156 14.160156 -18.902344 C 14.257812 -18.613281 14.351562 -18.292969 14.417969 -17.941406 L 14.417969 -5.253906 C 14.351562 -4.710938 14.257812 -4.324219 14.128906 -4.132812 C 14 -3.941406 13.839844 -3.78125 13.679688 -3.652344 C 13.488281 -3.523438 13.261719 -3.460938 13.007812 -3.394531 C 12.6875 -3.332031 12.367188 -3.332031 12.015625 -3.332031 Z M -2.402344 -18.773438 L -2.46875 -18.773438 C -2.5 -18.773438 -2.5 -18.742188 -2.5 -18.742188 C -2.5625 -18.742188 -2.59375 -18.710938 -2.59375 -18.710938 C -2.628906 -18.710938 -2.660156 -18.679688 -2.660156 -18.679688 C -2.691406 -18.644531 -2.691406 -18.613281 -2.691406 -18.613281 C -2.722656 -18.550781 -2.722656 -18.519531 -2.722656 -18.519531 C -2.753906 -18.484375 -2.753906 -18.453125 -2.753906 -18.453125 C -2.753906 -18.390625 -2.753906 -18.359375 -2.722656 -18.359375 C -2.722656 -18.324219 -2.722656 -18.292969 -2.691406 -18.261719 C -2.691406 -18.230469 -2.691406 -18.199219 -2.660156 -18.199219 C -2.660156 -18.164062 -2.628906 -18.164062 -2.59375 -18.164062 C -2.59375 -18.132812 -2.5625 -18.132812 -2.53125 -18.132812 C -2.5 -18.101562 -2.46875 -18.101562 -2.433594 -18.101562 L -2.339844 -18.101562 C -1.3125 -18.101562 -0.542969 -18.070312 -0.03125 -18.070312 C 0.257812 -18.070312 0.449219 -18.039062 0.578125 -17.972656 C 0.671875 -17.910156 0.769531 -17.8125 0.832031 -17.71875 C 0.863281 -17.589844 0.898438 -17.429688 0.929688 -17.300781 C 0.929688 -17.140625 0.960938 -17.011719 0.960938 -16.914062 L 0.960938 10.957031 C 0.960938 10.988281 0.960938 11.019531 0.992188 11.019531 C 0.992188 11.054688 0.992188 11.085938 1.023438 11.085938 L 1.089844 11.148438 C 1.089844 11.179688 1.121094 11.179688 1.183594 11.179688 C 1.183594 11.214844 1.21875 11.214844 1.25 11.214844 L 1.34375 11.214844 C 1.34375 11.214844 1.378906 11.179688 1.410156 11.179688 C 1.441406 11.179688 1.472656 11.148438 1.503906 11.148438 C 1.503906 11.148438 1.539062 11.117188 1.539062 11.085938 C 1.539062 11.085938 1.570312 11.054688 1.601562 10.988281 L 1.601562 10.925781 C 1.601562 10.925781 1.632812 10.894531 1.632812 10.828125 L 1.632812 -16.914062 C 1.632812 -17.042969 1.601562 -17.203125 1.601562 -17.398438 C 1.570312 -17.589844 1.503906 -17.8125 1.410156 -18.003906 C 1.28125 -18.199219 1.121094 -18.390625 0.898438 -18.550781 C 0.640625 -18.679688 0.320312 -18.742188 -0.03125 -18.742188 C -1.21875 -18.742188 -2.019531 -18.773438 -2.402344 -18.773438 Z M -2.402344 -18.773438 "/></g></g></g><g fill="#ffffff" fill-opacity="1"><g transform="translate(136.543684, 41.299424)"><g><path d="M 6.503906 -21.945312 C 6.503906 -22.8125 5.960938 -23.257812 4.933594 -23.257812 L 4.902344 -23.257812 C 3.8125 -23.226562 3.269531 -22.714844 3.269531 -21.691406 C 3.234375 -12.78125 3.234375 -6.085938 3.234375 -1.632812 C 3.234375 -0.992188 3.75 -0.609375 4.835938 -0.542969 L 5.125 -0.542969 C 5.992188 -0.542969 6.441406 -0.929688 6.503906 -1.761719 Z M 1.3125 -27.777344 C 1.25 -27.777344 1.21875 -27.808594 1.21875 -27.808594 L 1.089844 -27.808594 C 1.058594 -27.777344 1.023438 -27.777344 1.023438 -27.777344 L 0.992188 -27.746094 C 0.960938 -27.746094 0.929688 -27.710938 0.929688 -27.710938 C 0.898438 -27.679688 0.898438 -27.648438 0.898438 -27.648438 C 0.863281 -27.617188 0.863281 -27.585938 0.863281 -27.550781 C 0.832031 -27.519531 0.832031 -27.488281 0.832031 -27.488281 L 0.832031 -3.683594 C 0.832031 -3.652344 0.832031 -3.652344 0.863281 -3.652344 C 0.863281 -3.589844 0.863281 -3.554688 0.898438 -3.554688 C 0.898438 -3.523438 0.898438 -3.492188 0.929688 -3.492188 L 0.992188 -3.429688 C 0.992188 -3.394531 1.023438 -3.394531 1.058594 -3.394531 L 1.152344 -3.394531 L 1.183594 -3.363281 C 1.183594 -3.363281 1.21875 -3.394531 1.25 -3.394531 L 1.3125 -3.394531 L 1.441406 -3.523438 C 1.441406 -3.523438 1.472656 -3.554688 1.472656 -3.589844 C 1.472656 -3.589844 1.503906 -3.621094 1.503906 -3.652344 L 1.503906 -27.550781 C 1.503906 -27.550781 1.472656 -27.585938 1.472656 -27.617188 C 1.472656 -27.617188 1.441406 -27.648438 1.441406 -27.679688 L 1.378906 -27.746094 C 1.34375 -27.746094 1.3125 -27.777344 1.3125 -27.777344 Z M 1.3125 -27.777344 "/></g></g></g><g fill="#ffffff" fill-opacity="1"><g transform="translate(146.410956, 41.299424)"><g><path d="M 18.550781 -22.425781 C 18.550781 -23.257812 17.972656 -23.644531 16.851562 -23.613281 C 15.699219 -23.546875 15.1875 -23.066406 15.3125 -22.171875 L 15.21875 -9.097656 C 15.21875 -8.617188 15.027344 -8.296875 14.640625 -8.105469 C 14.226562 -7.914062 13.90625 -8.074219 13.648438 -8.617188 C 11.179688 -14.832031 9.355469 -19.511719 8.136719 -22.652344 L 8.074219 -22.84375 C 8.007812 -22.90625 7.976562 -22.9375 7.945312 -23.003906 C 7.847656 -23.097656 7.753906 -23.195312 7.65625 -23.292969 C 7.527344 -23.386719 7.433594 -23.453125 7.335938 -23.515625 C 7.207031 -23.578125 7.082031 -23.613281 6.953125 -23.644531 C 6.792969 -23.644531 6.664062 -23.675781 6.535156 -23.675781 L 4.675781 -23.675781 C 4.613281 -23.675781 4.550781 -23.644531 4.484375 -23.644531 C 4.355469 -23.578125 4.230469 -23.515625 4.132812 -23.484375 C 4.003906 -23.417969 3.875 -23.324219 3.78125 -23.257812 C 3.652344 -23.132812 3.589844 -23.035156 3.523438 -22.9375 C 3.429688 -22.8125 3.363281 -22.683594 3.332031 -22.554688 C 3.269531 -22.425781 3.269531 -22.296875 3.269531 -22.171875 C 3.269531 -22.011719 3.269531 -21.882812 3.300781 -21.753906 C 3.269531 -12.558594 3.269531 -5.671875 3.269531 -1.058594 C 3.269531 -0.800781 3.394531 -0.609375 3.683594 -0.417969 C 3.941406 -0.222656 4.355469 -0.128906 4.871094 -0.128906 C 5.351562 -0.0976562 5.734375 -0.191406 6.023438 -0.417969 C 6.28125 -0.609375 6.472656 -0.898438 6.535156 -1.21875 L 6.535156 -13.585938 C 6.472656 -14.03125 6.632812 -14.351562 7.046875 -14.511719 C 7.464844 -14.671875 7.785156 -14.511719 8.007812 -14.03125 C 10.253906 -8.296875 11.917969 -4.003906 13.070312 -1.121094 L 13.136719 -0.929688 C 13.136719 -0.863281 13.199219 -0.800781 13.261719 -0.769531 C 13.328125 -0.640625 13.425781 -0.542969 13.550781 -0.480469 C 13.617188 -0.382812 13.746094 -0.320312 13.871094 -0.257812 C 14 -0.191406 14.128906 -0.128906 14.257812 -0.128906 C 14.386719 -0.0976562 14.511719 -0.0976562 14.671875 -0.0976562 L 17.011719 -0.0976562 C 17.074219 -0.0976562 17.171875 -0.0976562 17.238281 -0.128906 C 17.332031 -0.191406 17.460938 -0.222656 17.589844 -0.289062 C 17.71875 -0.351562 17.8125 -0.417969 17.941406 -0.511719 L 18.199219 -0.832031 C 18.261719 -0.960938 18.292969 -1.089844 18.359375 -1.21875 C 18.390625 -1.34375 18.421875 -1.472656 18.453125 -1.601562 C 18.453125 -1.730469 18.421875 -1.890625 18.421875 -2.019531 C 18.484375 -12.207031 18.519531 -19.03125 18.550781 -22.425781 Z M 4.675781 -26.015625 L 4.582031 -26.015625 C 4.261719 -26.015625 3.910156 -25.949219 3.523438 -25.886719 C 3.109375 -25.757812 2.691406 -25.597656 2.308594 -25.34375 C 1.921875 -25.085938 1.570312 -24.734375 1.3125 -24.285156 C 0.992188 -23.804688 0.832031 -23.257812 0.832031 -22.617188 L 0.832031 4.195312 C 0.832031 4.261719 0.863281 4.292969 0.863281 4.292969 L 0.929688 4.355469 C 0.929688 4.390625 0.929688 4.421875 0.992188 4.421875 C 0.992188 4.421875 1.023438 4.453125 1.058594 4.453125 L 1.21875 4.453125 C 1.21875 4.453125 1.25 4.453125 1.3125 4.421875 C 1.3125 4.421875 1.34375 4.421875 1.378906 4.390625 L 1.441406 4.324219 C 1.441406 4.324219 1.441406 4.292969 1.472656 4.261719 C 1.472656 4.261719 1.472656 4.230469 1.503906 4.164062 L 1.503906 -22.585938 C 1.503906 -23.132812 1.632812 -23.578125 1.890625 -23.933594 C 2.082031 -24.253906 2.371094 -24.539062 2.691406 -24.765625 C 3.011719 -24.957031 3.332031 -25.117188 3.714844 -25.214844 C 4.070312 -25.308594 4.390625 -25.34375 4.675781 -25.34375 L 6.535156 -25.34375 C 7.6875 -25.34375 8.488281 -25.117188 8.96875 -24.667969 C 9.417969 -24.21875 9.738281 -23.804688 9.933594 -23.417969 L 12.816406 -15.828125 L 12.816406 -15.761719 C 12.816406 -15.761719 12.847656 -15.730469 12.847656 -15.730469 L 12.910156 -15.667969 C 12.910156 -15.632812 12.941406 -15.632812 12.976562 -15.632812 C 12.976562 -15.601562 13.007812 -15.601562 13.039062 -15.601562 C 13.039062 -15.570312 13.070312 -15.570312 13.136719 -15.570312 C 13.136719 -15.570312 13.167969 -15.570312 13.199219 -15.601562 L 13.296875 -15.601562 L 13.359375 -15.667969 L 13.425781 -15.730469 C 13.425781 -15.730469 13.425781 -15.761719 13.457031 -15.792969 L 13.457031 -16.050781 C 12.140625 -19.414062 11.179688 -21.945312 10.539062 -23.675781 C 10.347656 -24.125 9.933594 -24.636719 9.355469 -25.214844 C 8.746094 -25.726562 7.816406 -26.015625 6.535156 -26.015625 Z M 4.675781 -26.015625 "/></g></g></g><g fill="#ffffff" fill-opacity="1"><g transform="translate(168.131769, 41.299424)"><g><path d="M 4.933594 -23.707031 C 4.902344 -23.707031 4.871094 -23.675781 4.804688 -23.675781 C 4.742188 -23.675781 4.742188 -23.675781 4.773438 -23.707031 L 4.804688 -23.707031 C 4.804688 -23.707031 4.773438 -23.675781 4.675781 -23.675781 C 4.550781 -23.644531 4.453125 -23.613281 4.390625 -23.613281 C 4.261719 -23.546875 4.132812 -23.453125 4.035156 -23.386719 C 3.910156 -23.324219 3.78125 -23.226562 3.714844 -23.132812 C 3.621094 -23.035156 3.554688 -22.9375 3.492188 -22.8125 C 3.429688 -22.683594 3.363281 -22.554688 3.332031 -22.425781 C 3.332031 -13.199219 3.300781 -6.3125 3.300781 -1.730469 L 3.300781 -1.539062 C 3.300781 -1.441406 3.332031 -1.378906 3.363281 -1.3125 C 3.394531 -1.183594 3.460938 -1.089844 3.523438 -0.960938 C 3.589844 -0.832031 3.652344 -0.703125 3.75 -0.609375 C 3.8125 -0.511719 3.941406 -0.417969 4.070312 -0.351562 C 4.164062 -0.289062 4.292969 -0.222656 4.421875 -0.191406 C 4.550781 -0.128906 4.675781 -0.0976562 4.835938 -0.0976562 C 4.964844 -0.0976562 5.09375 -0.0976562 5.222656 -0.128906 C 9.324219 -0.0976562 12.429688 -0.0976562 14.511719 -0.0976562 C 15.089844 -0.0976562 15.410156 -0.609375 15.472656 -1.664062 L 15.472656 -1.859375 C 15.472656 -2.753906 15.089844 -3.269531 14.386719 -3.363281 L 8.105469 -3.363281 C 7.847656 -3.363281 7.527344 -3.394531 7.144531 -3.523438 C 6.761719 -3.652344 6.566406 -4.132812 6.566406 -4.996094 L 6.566406 -8.648438 C 6.566406 -9.035156 6.632812 -9.417969 6.761719 -9.804688 C 6.855469 -10.1875 7.304688 -10.414062 8.074219 -10.414062 L 12.460938 -10.414062 C 12.75 -10.378906 12.976562 -10.507812 13.167969 -10.828125 C 13.296875 -11.085938 13.390625 -11.40625 13.425781 -11.789062 C 13.457031 -12.238281 13.390625 -12.65625 13.230469 -13.070312 C 13.039062 -13.457031 12.78125 -13.679688 12.460938 -13.679688 L 8.105469 -13.679688 C 7.847656 -13.679688 7.5625 -13.710938 7.175781 -13.839844 C 6.761719 -13.96875 6.566406 -14.480469 6.566406 -15.378906 L 6.566406 -18.679688 C 6.566406 -19 6.632812 -19.382812 6.761719 -19.800781 C 6.886719 -20.183594 7.367188 -20.40625 8.234375 -20.40625 L 14.417969 -20.40625 C 14.640625 -20.40625 14.832031 -20.535156 15.027344 -20.792969 C 15.1875 -21.050781 15.28125 -21.433594 15.347656 -21.945312 C 15.347656 -22.457031 15.28125 -22.875 15.121094 -23.195312 C 14.929688 -23.484375 14.640625 -23.644531 14.289062 -23.675781 C 9.613281 -23.675781 6.472656 -23.675781 4.933594 -23.707031 Z M 11.339844 -25.984375 L 4.164062 -25.984375 C 3.8125 -25.984375 3.460938 -25.917969 3.109375 -25.789062 C 2.722656 -25.664062 2.371094 -25.4375 2.082031 -25.117188 C 1.761719 -24.796875 1.503906 -24.378906 1.3125 -23.867188 C 1.089844 -23.355469 0.992188 -22.714844 0.992188 -22.011719 L 0.992188 -4.582031 C 0.992188 -4.550781 0.992188 -4.550781 1.023438 -4.550781 C 1.023438 -4.515625 1.023438 -4.484375 1.058594 -4.453125 C 1.058594 -4.421875 1.058594 -4.390625 1.089844 -4.390625 C 1.089844 -4.355469 1.121094 -4.355469 1.152344 -4.355469 L 1.21875 -4.292969 L 1.378906 -4.292969 C 1.410156 -4.292969 1.441406 -4.292969 1.472656 -4.324219 C 1.472656 -4.324219 1.503906 -4.324219 1.539062 -4.355469 L 1.601562 -4.421875 C 1.601562 -4.421875 1.632812 -4.453125 1.632812 -4.484375 C 1.632812 -4.484375 1.664062 -4.515625 1.664062 -4.582031 L 1.664062 -22.011719 C 1.664062 -22.652344 1.730469 -23.195312 1.921875 -23.644531 C 2.082031 -24.058594 2.308594 -24.378906 2.5625 -24.636719 C 2.789062 -24.894531 3.042969 -25.054688 3.363281 -25.183594 C 3.621094 -25.246094 3.910156 -25.308594 4.164062 -25.308594 L 11.40625 -25.308594 C 11.40625 -25.308594 11.4375 -25.308594 11.4375 -25.34375 C 11.46875 -25.34375 11.5 -25.34375 11.535156 -25.375 C 11.535156 -25.375 11.566406 -25.375 11.597656 -25.40625 L 11.660156 -25.46875 C 11.660156 -25.46875 11.660156 -25.503906 11.695312 -25.535156 L 11.695312 -25.628906 C 11.695312 -25.628906 11.695312 -25.664062 11.695312 -25.664062 L 11.695312 -25.789062 L 11.5 -25.984375 Z M 11.339844 -25.984375 "/></g></g></g><g fill="#ffffff" fill-opacity="1"><g transform="translate(187.898349, 41.299424)"><g><path d="M 17.203125 -38.894531 C 17.140625 -39.085938 17.042969 -39.246094 16.914062 -39.40625 C 16.789062 -39.535156 16.628906 -39.628906 16.5 -39.726562 C 16.210938 -39.855469 15.921875 -39.949219 15.601562 -39.984375 C 15.378906 -39.984375 15.152344 -39.917969 14.898438 -39.855469 C 14.320312 -39.664062 14 -39.34375 13.9375 -38.894531 L 13.9375 -15.3125 C 13.9375 -14.226562 13.679688 -13.648438 13.167969 -13.550781 C 12.621094 -13.425781 12.175781 -13.390625 11.855469 -13.390625 L 8.234375 -13.390625 C 7.976562 -13.390625 7.65625 -13.488281 7.273438 -13.617188 C 6.824219 -13.746094 6.632812 -14.320312 6.632812 -15.347656 L 6.632812 -22.457031 C 6.472656 -22.746094 6.3125 -22.972656 6.121094 -23.132812 C 5.925781 -23.292969 5.703125 -23.386719 5.476562 -23.453125 C 4.964844 -23.578125 4.484375 -23.484375 4.035156 -23.226562 C 3.589844 -22.9375 3.363281 -22.683594 3.363281 -22.457031 L 3.363281 16.46875 C 3.394531 16.691406 3.460938 16.882812 3.589844 17.011719 C 3.714844 17.171875 3.84375 17.300781 3.972656 17.398438 C 4.261719 17.589844 4.582031 17.683594 4.933594 17.683594 C 5.125 17.683594 5.351562 17.652344 5.574219 17.589844 C 6.152344 17.429688 6.503906 17.042969 6.632812 16.46875 L 6.632812 -8.296875 C 6.632812 -8.523438 6.726562 -8.875 6.921875 -9.386719 C 7.082031 -9.898438 7.5625 -10.125 8.328125 -10.125 L 12.109375 -10.125 C 12.398438 -10.125 12.78125 -10.027344 13.261719 -9.898438 C 13.710938 -9.773438 13.9375 -9.164062 13.9375 -8.136719 L 13.9375 -1.28125 C 13.96875 -1.089844 14.03125 -0.960938 14.097656 -0.832031 C 14.160156 -0.703125 14.257812 -0.578125 14.386719 -0.511719 C 14.832031 -0.128906 15.410156 0 16.148438 -0.160156 C 16.851562 -0.289062 17.203125 -0.671875 17.203125 -1.28125 C 17.203125 -1.601562 17.238281 -2.789062 17.238281 -4.902344 L 17.238281 -23.132812 C 17.203125 -25.949219 17.203125 -28.769531 17.203125 -31.523438 Z M 1.023438 -14.898438 C 0.992188 -14.898438 0.960938 -14.898438 0.960938 -14.929688 L 0.929688 -14.929688 C 0.898438 -14.929688 0.863281 -14.898438 0.832031 -14.898438 L 0.800781 -14.898438 C 0.769531 -14.898438 0.769531 -14.867188 0.769531 -14.867188 C 0.703125 -14.867188 0.671875 -14.832031 0.671875 -14.832031 C 0.640625 -14.800781 0.640625 -14.769531 0.640625 -14.769531 C 0.609375 -14.738281 0.609375 -14.707031 0.609375 -14.671875 C 0.578125 -14.640625 0.578125 -14.609375 0.578125 -14.609375 L 0.578125 13.261719 C 0.578125 13.328125 0.609375 13.359375 0.609375 13.359375 L 0.671875 13.425781 L 0.738281 13.488281 C 0.738281 13.519531 0.769531 13.519531 0.800781 13.519531 L 0.898438 13.519531 C 0.898438 13.550781 0.898438 13.550781 0.929688 13.519531 L 1.058594 13.519531 L 1.121094 13.457031 L 1.183594 13.390625 C 1.183594 13.390625 1.21875 13.359375 1.21875 13.328125 C 1.21875 13.328125 1.25 13.296875 1.25 13.261719 L 1.25 -14.640625 C 1.21875 -14.671875 1.21875 -14.707031 1.21875 -14.738281 L 1.152344 -14.800781 C 1.152344 -14.800781 1.121094 -14.832031 1.121094 -14.867188 C 1.058594 -14.867188 1.023438 -14.898438 1.023438 -14.898438 Z M 19.800781 -36.363281 C 19.765625 -36.363281 19.734375 -36.394531 19.734375 -36.394531 L 19.640625 -36.394531 L 19.605469 -36.363281 L 19.542969 -36.363281 L 19.414062 -36.234375 C 19.414062 -36.203125 19.382812 -36.171875 19.382812 -36.171875 L 19.382812 -36.105469 C 19.351562 -23.738281 19.351562 -14.449219 19.351562 -8.265625 L 19.351562 -8.234375 C 19.351562 -8.203125 19.351562 -8.203125 19.382812 -8.203125 C 19.382812 -8.167969 19.382812 -8.136719 19.414062 -8.105469 C 19.414062 -8.074219 19.414062 -8.042969 19.445312 -8.042969 L 19.511719 -7.976562 C 19.511719 -7.976562 19.542969 -7.945312 19.574219 -7.945312 L 19.765625 -7.945312 C 19.765625 -7.945312 19.800781 -7.945312 19.832031 -7.976562 C 19.832031 -7.976562 19.863281 -7.976562 19.894531 -8.007812 L 20.023438 -8.136719 L 20.023438 -36.136719 C 20.023438 -36.136719 19.992188 -36.171875 19.992188 -36.203125 C 19.992188 -36.203125 19.960938 -36.234375 19.960938 -36.265625 L 19.894531 -36.332031 C 19.863281 -36.332031 19.832031 -36.363281 19.800781 -36.363281 Z M 19.800781 -36.363281 "/></g></g></g><g fill="#ffffff" fill-opacity="1"><g transform="translate(208.241589, 41.299424)"><g><path d="M 6.664062 -22.074219 C 6.664062 -22.90625 6.085938 -23.292969 4.996094 -23.257812 C 3.910156 -23.195312 3.363281 -22.714844 3.394531 -21.816406 C 3.394531 -15.089844 3.363281 -10.027344 3.363281 -6.664062 C 3.363281 -5.476562 3.589844 -4.453125 4.070312 -3.554688 C 4.515625 -2.660156 5.125 -1.953125 5.863281 -1.441406 C 6.566406 -0.929688 7.367188 -0.578125 8.203125 -0.382812 C 9.003906 -0.191406 9.773438 -0.128906 10.539062 -0.128906 C 11.375 -0.128906 12.238281 -0.222656 13.070312 -0.480469 C 13.871094 -0.738281 14.609375 -1.121094 15.3125 -1.664062 C 15.988281 -2.179688 16.53125 -2.851562 16.980469 -3.683594 C 17.363281 -4.453125 17.558594 -5.285156 17.558594 -6.214844 L 17.558594 -22.074219 C 17.558594 -22.8125 16.980469 -23.195312 15.890625 -23.257812 C 15.828125 -23.257812 15.761719 -23.292969 15.730469 -23.292969 C 14.738281 -23.257812 14.257812 -22.8125 14.289062 -21.945312 L 14.289062 -6.28125 C 14.289062 -6.246094 14.289062 -6.152344 14.320312 -6.023438 C 14.257812 -5.636719 14.160156 -5.285156 14.03125 -5.03125 C 13.90625 -4.773438 13.648438 -4.515625 13.328125 -4.261719 C 13.007812 -4.003906 12.589844 -3.78125 12.078125 -3.621094 C 11.566406 -3.460938 11.054688 -3.394531 10.539062 -3.394531 C 10.027344 -3.394531 9.515625 -3.460938 9.003906 -3.589844 C 8.488281 -3.683594 8.074219 -3.84375 7.753906 -4.101562 C 7.402344 -4.324219 7.144531 -4.613281 6.953125 -4.996094 C 6.761719 -5.351562 6.664062 -5.894531 6.664062 -6.664062 Z M 19.800781 -21.242188 L 19.574219 -21.242188 L 19.542969 -21.210938 C 19.480469 -21.175781 19.445312 -21.144531 19.445312 -21.144531 C 19.414062 -21.144531 19.414062 -21.113281 19.414062 -21.082031 C 19.382812 -21.050781 19.382812 -21.015625 19.382812 -21.015625 C 19.351562 -20.984375 19.351562 -20.953125 19.351562 -20.953125 L 19.351562 -5.734375 C 19.351562 -5.382812 19.253906 -4.773438 19.125 -3.941406 C 18.964844 -3.109375 18.582031 -2.242188 17.941406 -1.410156 C 17.300781 -0.542969 16.339844 0.191406 15.058594 0.800781 C 13.777344 1.441406 11.949219 1.664062 9.578125 1.539062 L 9.546875 1.539062 C 9.515625 1.539062 9.515625 1.570312 9.515625 1.570312 L 9.417969 1.570312 L 9.289062 1.699219 C 9.257812 1.730469 9.257812 1.761719 9.257812 1.761719 C 9.226562 1.792969 9.226562 1.824219 9.226562 1.824219 L 9.226562 1.921875 C 9.226562 1.953125 9.226562 1.988281 9.257812 2.019531 C 9.257812 2.050781 9.257812 2.082031 9.289062 2.082031 L 9.355469 2.148438 C 9.355469 2.179688 9.386719 2.179688 9.417969 2.179688 C 9.417969 2.210938 9.449219 2.210938 9.484375 2.210938 L 9.578125 2.210938 C 9.964844 2.242188 10.316406 2.242188 10.667969 2.242188 C 12.589844 2.242188 14.128906 1.988281 15.347656 1.410156 C 16.753906 0.738281 17.78125 -0.0625 18.484375 -0.992188 C 19.191406 -1.921875 19.605469 -2.851562 19.765625 -3.8125 C 19.925781 -4.710938 20.023438 -5.351562 20.023438 -5.734375 L 20.023438 -20.984375 C 19.992188 -20.984375 19.992188 -21.015625 19.992188 -21.082031 L 19.925781 -21.144531 C 19.925781 -21.144531 19.894531 -21.175781 19.894531 -21.210938 C 19.832031 -21.210938 19.800781 -21.210938 19.800781 -21.242188 Z M 19.800781 -21.242188 "/></g></g></g><g fill="#ffffff" fill-opacity="1"><g transform="translate(229.32167, 41.299424)"><g><path d="M 4.902344 -23.644531 L 4.773438 -23.644531 C 4.710938 -23.644531 4.710938 -23.644531 4.742188 -23.644531 L 4.773438 -23.644531 C 4.773438 -23.644531 4.742188 -23.613281 4.644531 -23.613281 C 4.515625 -23.578125 4.421875 -23.546875 4.355469 -23.546875 C 4.230469 -23.484375 4.101562 -23.417969 4.003906 -23.355469 C 3.875 -23.292969 3.75 -23.195312 3.683594 -23.097656 C 3.589844 -22.972656 3.523438 -22.875 3.460938 -22.746094 C 3.394531 -22.617188 3.332031 -22.492188 3.300781 -22.363281 C 3.300781 -13.167969 3.269531 -6.28125 3.269531 -1.664062 L 3.269531 -1.472656 L 3.332031 -1.28125 C 3.363281 -1.152344 3.429688 -1.023438 3.492188 -0.898438 C 3.554688 -0.769531 3.621094 -0.640625 3.714844 -0.578125 C 3.78125 -0.449219 3.910156 -0.382812 4.035156 -0.320312 C 4.132812 -0.222656 4.261719 -0.160156 4.390625 -0.128906 C 4.515625 -0.0625 4.644531 -0.0625 4.804688 -0.0625 C 4.933594 -0.03125 5.0625 -0.03125 5.191406 -0.0625 C 8.074219 -0.0625 10.21875 -0.03125 11.695312 -0.03125 C 12.71875 -0.03125 13.648438 -0.222656 14.480469 -0.671875 C 15.3125 -1.058594 16.019531 -1.601562 16.59375 -2.273438 C 17.109375 -2.914062 17.523438 -3.652344 17.78125 -4.453125 C 18.039062 -5.222656 18.199219 -6.054688 18.199219 -6.886719 C 18.164062 -7.6875 18.039062 -8.488281 17.78125 -9.289062 C 17.523438 -10.058594 17.109375 -10.796875 16.5625 -11.46875 C 16.402344 -11.597656 16.242188 -11.757812 16.050781 -11.886719 C 15.828125 -11.980469 15.632812 -12.109375 15.472656 -12.238281 C 15.601562 -12.367188 15.730469 -12.496094 15.859375 -12.621094 C 15.988281 -12.75 16.113281 -12.878906 16.242188 -13.039062 C 16.691406 -13.679688 16.980469 -14.417969 17.140625 -15.21875 C 17.300781 -15.988281 17.332031 -16.753906 17.269531 -17.523438 C 17.074219 -19.0625 16.433594 -20.441406 15.28125 -21.722656 C 14.128906 -23.003906 12.589844 -23.644531 10.699219 -23.644531 Z M 8.296875 -13.550781 C 7.976562 -13.550781 7.625 -13.585938 7.207031 -13.710938 C 6.761719 -13.839844 6.535156 -14.351562 6.535156 -15.28125 L 6.535156 -18.804688 C 6.535156 -19.0625 6.601562 -19.382812 6.726562 -19.765625 C 6.824219 -20.152344 7.304688 -20.375 8.203125 -20.375 L 10.699219 -20.375 C 11.726562 -20.375 12.527344 -20.054688 13.070312 -19.414062 C 13.585938 -18.773438 13.90625 -18.039062 14 -17.171875 C 14 -17.011719 14.03125 -16.882812 14.03125 -16.753906 C 14.03125 -16.433594 14 -16.179688 13.9375 -15.921875 C 13.839844 -15.472656 13.679688 -15.121094 13.488281 -14.800781 C 13.296875 -14.480469 13.039062 -14.226562 12.75 -14.03125 C 12.429688 -13.777344 12.015625 -13.617188 11.5 -13.550781 Z M 8.363281 -3.332031 C 8.042969 -3.332031 7.65625 -3.394531 7.207031 -3.523438 C 6.761719 -3.652344 6.535156 -4.195312 6.535156 -5.15625 L 6.535156 -8.617188 C 6.535156 -8.90625 6.601562 -9.257812 6.726562 -9.675781 C 6.824219 -10.058594 7.304688 -10.285156 8.136719 -10.285156 L 11.789062 -10.285156 C 11.820312 -10.285156 11.917969 -10.285156 12.046875 -10.316406 C 11.949219 -10.285156 11.855469 -10.285156 11.757812 -10.285156 C 11.628906 -10.285156 11.628906 -10.285156 11.695312 -10.285156 C 11.757812 -10.253906 11.789062 -10.253906 11.820312 -10.253906 C 11.855469 -10.253906 11.949219 -10.285156 12.078125 -10.316406 C 12.496094 -10.285156 12.878906 -10.1875 13.199219 -10.027344 C 13.519531 -9.867188 13.808594 -9.644531 14.066406 -9.355469 C 14.320312 -9.035156 14.511719 -8.683594 14.671875 -8.234375 C 14.800781 -7.785156 14.898438 -7.335938 14.898438 -6.886719 C 14.898438 -6.375 14.800781 -5.925781 14.671875 -5.511719 C 14.511719 -5.0625 14.320312 -4.675781 14.066406 -4.355469 C 13.808594 -4.035156 13.488281 -3.78125 13.136719 -3.589844 C 12.75 -3.394531 12.269531 -3.332031 11.695312 -3.332031 Z M 1.34375 -20.503906 C 1.3125 -20.503906 1.28125 -20.535156 1.28125 -20.535156 L 1.25 -20.535156 C 1.21875 -20.535156 1.183594 -20.503906 1.152344 -20.503906 L 1.121094 -20.503906 C 1.089844 -20.503906 1.089844 -20.472656 1.089844 -20.472656 C 1.058594 -20.472656 1.023438 -20.441406 0.992188 -20.441406 C 0.960938 -20.40625 0.960938 -20.375 0.960938 -20.375 C 0.929688 -20.34375 0.929688 -20.3125 0.929688 -20.3125 C 0.898438 -20.246094 0.898438 -20.214844 0.898438 -20.214844 L 0.898438 3.652344 C 0.898438 3.683594 0.929688 3.714844 0.929688 3.714844 L 0.992188 3.78125 L 1.058594 3.84375 C 1.058594 3.875 1.089844 3.875 1.121094 3.875 C 1.121094 3.910156 1.152344 3.910156 1.21875 3.910156 L 1.28125 3.910156 C 1.3125 3.910156 1.34375 3.875 1.378906 3.875 L 1.441406 3.8125 C 1.441406 3.8125 1.472656 3.8125 1.503906 3.78125 C 1.503906 3.78125 1.539062 3.75 1.539062 3.683594 C 1.539062 3.683594 1.570312 3.652344 1.570312 3.621094 L 1.570312 -20.28125 C 1.539062 -20.28125 1.539062 -20.3125 1.539062 -20.34375 C 1.503906 -20.34375 1.503906 -20.375 1.503906 -20.40625 L 1.441406 -20.472656 C 1.378906 -20.472656 1.34375 -20.503906 1.34375 -20.503906 Z M 1.34375 -20.503906 "/></g></g></g><g clip-path="url(#192290ce75)"><path fill="#ffffff" d="M 269.230469 17.914062 L 272.921875 23.886719 C 273.089844 24.160156 273.007812 24.511719 272.738281 24.679688 C 272.464844 24.847656 272.113281 24.761719 271.945312 24.492188 L 267.941406 18.710938 L 267.617188 18.910156 L 270.96875 25.097656 C 271.136719 25.367188 271.050781 25.722656 270.78125 25.886719 C 270.511719 26.054688 270.15625 25.972656 269.992188 25.699219 L 266.296875 19.726562 L 265.851562 20 L 269.894531 27.183594 C 270.367188 27.945312 271.371094 28.183594 272.136719 27.710938 L 273.761719 26.703125 C 274.527344 26.230469 274.765625 25.226562 274.292969 24.460938 L 269.636719 17.660156 L 269.230469 17.914062 " fill-opacity="1" fill-rule="nonzero"/></g><g clip-path="url(#fadf0974eb)"><path fill="#ffffff" d="M 282.503906 39.914062 C 282.402344 39.773438 282.257812 39.5625 282.066406 39.296875 C 281.882812 39.03125 281.65625 38.707031 281.398438 38.335938 C 281.144531 37.964844 280.855469 37.542969 280.542969 37.082031 C 280.234375 36.617188 279.894531 36.117188 279.546875 35.585938 C 279.191406 35.054688 278.824219 34.492188 278.445312 33.910156 C 278.066406 33.328125 277.679688 32.722656 277.285156 32.105469 C 276.890625 31.492188 276.5 30.863281 276.101562 30.238281 C 276.003906 30.082031 275.910156 29.925781 275.8125 29.769531 C 275.515625 29.296875 275.222656 28.828125 274.933594 28.359375 C 274.695312 27.972656 274.460938 27.585938 274.226562 27.210938 C 274.089844 26.980469 273.949219 26.753906 273.816406 26.53125 C 273.640625 26.238281 273.472656 25.949219 273.304688 25.667969 L 271.554688 26.75 C 271.726562 27.023438 271.902344 27.300781 272.078125 27.585938 C 272.445312 28.171875 272.816406 28.785156 273.195312 29.40625 L 273.199219 29.414062 C 273.578125 30.035156 273.957031 30.671875 274.339844 31.308594 C 274.484375 31.554688 274.632812 31.804688 274.78125 32.050781 C 275.011719 32.441406 275.238281 32.828125 275.464844 33.210938 C 275.835938 33.839844 276.191406 34.464844 276.542969 35.066406 C 276.886719 35.667969 277.21875 36.25 277.53125 36.808594 C 277.847656 37.363281 278.136719 37.890625 278.40625 38.375 C 278.675781 38.863281 278.921875 39.3125 279.136719 39.707031 C 279.347656 40.109375 279.535156 40.457031 279.6875 40.742188 C 279.839844 41.03125 279.957031 41.257812 280.035156 41.410156 C 280.117188 41.566406 280.160156 41.648438 280.160156 41.648438 C 280.214844 41.761719 280.289062 41.882812 280.367188 41.988281 C 281 42.863281 282.023438 43.15625 282.660156 42.644531 C 283.292969 42.132812 283.292969 41.007812 282.660156 40.128906 C 282.660156 40.128906 282.605469 40.054688 282.503906 39.914062 " fill-opacity="1" fill-rule="nonzero"/></g><g clip-path="url(#c2f528e973)"><path fill="#ffffff" d="M 271.597656 41.457031 C 271.664062 41.296875 271.761719 41.058594 271.890625 40.761719 C 272.015625 40.460938 272.171875 40.097656 272.351562 39.683594 C 272.53125 39.269531 272.738281 38.800781 272.964844 38.292969 C 273.191406 37.785156 273.4375 37.234375 273.703125 36.65625 C 273.96875 36.074219 274.25 35.464844 274.542969 34.835938 C 274.839844 34.207031 275.144531 33.554688 275.460938 32.894531 C 275.773438 32.238281 276.097656 31.570312 276.417969 30.902344 C 276.5 30.738281 276.582031 30.574219 276.660156 30.410156 C 276.90625 29.910156 277.148438 29.410156 277.394531 28.917969 C 277.597656 28.507812 277.796875 28.105469 277.996094 27.710938 C 278.117188 27.472656 278.234375 27.234375 278.355469 27 C 278.507812 26.699219 278.664062 26.402344 278.816406 26.109375 L 276.972656 25.199219 C 276.832031 25.488281 276.691406 25.785156 276.542969 26.085938 C 276.238281 26.707031 275.914062 27.347656 275.585938 27.996094 L 275.582031 28 C 275.253906 28.652344 274.914062 29.3125 274.578125 29.972656 C 274.445312 30.230469 274.3125 30.484375 274.179688 30.738281 C 273.972656 31.140625 273.765625 31.539062 273.558594 31.933594 C 273.21875 32.582031 272.882812 33.214844 272.554688 33.828125 C 272.226562 34.441406 271.910156 35.035156 271.601562 35.59375 C 271.296875 36.152344 271.003906 36.679688 270.734375 37.167969 C 270.464844 37.652344 270.210938 38.097656 269.988281 38.488281 C 269.761719 38.882812 269.566406 39.222656 269.402344 39.503906 C 269.238281 39.785156 269.109375 40.003906 269.019531 40.15625 C 268.933594 40.304688 268.882812 40.382812 268.882812 40.382812 C 268.820312 40.492188 268.753906 40.617188 268.707031 40.738281 C 268.296875 41.738281 268.589844 42.765625 269.363281 43.03125 C 270.132812 43.296875 271.089844 42.703125 271.496094 41.703125 C 271.496094 41.703125 271.53125 41.617188 271.597656 41.457031 " fill-opacity="1" fill-rule="nonzero"/></g><g clip-path="url(#359899fb83)"><path fill="#ffffff" d="M 282.023438 23.449219 C 280.816406 25.886719 278.710938 27.308594 277.320312 26.621094 C 275.933594 25.9375 275.785156 23.398438 276.992188 20.960938 C 278.199219 18.519531 279.503906 16.703125 281.691406 17.785156 C 283.882812 18.867188 283.230469 21.007812 282.023438 23.449219 " fill-opacity="1" fill-rule="nonzero"/></g><g clip-path="url(#ab54f7a302)"><path fill="#ffffff" d="M 282.660156 40.128906 L 282.777344 40.046875 C 282.777344 40.046875 282.722656 39.972656 282.621094 39.832031 C 282.519531 39.691406 282.371094 39.480469 282.183594 39.214844 L 282.183594 39.21875 C 282 38.949219 281.773438 38.625 281.515625 38.253906 C 281.261719 37.882812 280.972656 37.460938 280.660156 37 C 280.351562 36.539062 280.015625 36.039062 279.664062 35.507812 C 279.3125 34.976562 278.945312 34.414062 278.566406 33.832031 C 278.1875 33.25 277.796875 32.644531 277.40625 32.03125 C 277.132812 31.605469 276.859375 31.171875 276.585938 30.734375 C 276.558594 30.691406 276.507812 30.667969 276.457031 30.667969 C 276.40625 30.671875 276.359375 30.703125 276.335938 30.75 C 276.320312 30.777344 276.304688 30.808594 276.292969 30.839844 C 275.96875 31.507812 275.644531 32.175781 275.332031 32.835938 C 275.304688 32.890625 275.277344 32.949219 275.25 33.003906 C 275.230469 33.046875 275.230469 33.097656 275.253906 33.136719 C 275.285156 33.1875 275.3125 33.238281 275.339844 33.285156 C 275.710938 33.914062 276.070312 34.535156 276.417969 35.136719 C 276.761719 35.738281 277.097656 36.324219 277.410156 36.878906 C 277.722656 37.433594 278.015625 37.957031 278.285156 38.445312 C 278.550781 38.929688 278.796875 39.378906 279.011719 39.777344 C 279.222656 40.175781 279.410156 40.523438 279.5625 40.808594 C 279.710938 41.097656 279.828125 41.324219 279.910156 41.476562 C 279.988281 41.632812 280.03125 41.714844 280.03125 41.714844 C 280.09375 41.832031 280.167969 41.957031 280.25 42.070312 C 280.695312 42.6875 281.328125 43.039062 281.921875 43.039062 C 282.21875 43.039062 282.511719 42.949219 282.746094 42.753906 C 282.925781 42.609375 283.058594 42.421875 283.148438 42.210938 C 283.234375 42 283.277344 41.765625 283.277344 41.523438 C 283.277344 41.035156 283.109375 40.507812 282.777344 40.046875 L 282.660156 40.128906 L 282.546875 40.214844 C 282.84375 40.628906 282.992188 41.101562 282.992188 41.523438 C 282.992188 41.734375 282.957031 41.929688 282.882812 42.101562 C 282.8125 42.277344 282.707031 42.421875 282.570312 42.535156 C 282.382812 42.683594 282.164062 42.753906 281.921875 42.753906 C 281.441406 42.757812 280.878906 42.457031 280.480469 41.90625 C 280.410156 41.804688 280.339844 41.691406 280.285156 41.582031 L 280.285156 41.585938 C 280.285156 41.585938 280.242188 41.5 280.164062 41.347656 L 280.164062 41.34375 C 280.082031 41.191406 279.964844 40.964844 279.8125 40.675781 C 279.660156 40.390625 279.476562 40.042969 279.261719 39.640625 C 279.046875 39.242188 278.800781 38.796875 278.53125 38.308594 C 278.261719 37.820312 277.96875 37.292969 277.65625 36.738281 C 277.34375 36.179688 277.007812 35.597656 276.664062 34.996094 C 276.316406 34.390625 275.957031 33.769531 275.585938 33.140625 C 275.558594 33.09375 275.53125 33.042969 275.5 32.996094 L 275.378906 33.066406 L 275.507812 33.128906 C 275.535156 33.070312 275.5625 33.015625 275.589844 32.957031 C 275.898438 32.300781 276.226562 31.632812 276.546875 30.964844 C 276.5625 30.933594 276.578125 30.902344 276.59375 30.875 L 276.464844 30.8125 L 276.34375 30.886719 C 276.617188 31.320312 276.890625 31.757812 277.167969 32.183594 C 277.558594 32.800781 277.949219 33.402344 278.328125 33.988281 C 278.707031 34.570312 279.074219 35.132812 279.425781 35.664062 C 279.777344 36.199219 280.113281 36.699219 280.425781 37.160156 C 280.738281 37.621094 281.023438 38.042969 281.28125 38.417969 C 281.539062 38.789062 281.765625 39.113281 281.949219 39.378906 L 281.953125 39.378906 C 282.140625 39.644531 282.289062 39.855469 282.390625 39.996094 C 282.492188 40.136719 282.546875 40.214844 282.546875 40.214844 L 282.660156 40.128906 " fill-opacity="1" fill-rule="nonzero"/></g><path fill="#ffffff" d="M 274.578125 29.972656 L 274.703125 30.039062 C 274.910156 29.636719 275.113281 29.238281 275.316406 28.839844 C 275.339844 28.792969 275.339844 28.742188 275.3125 28.699219 C 275.226562 28.558594 275.140625 28.421875 275.054688 28.285156 C 274.816406 27.894531 274.582031 27.511719 274.351562 27.136719 C 274.230469 26.941406 274.113281 26.746094 273.996094 26.554688 C 273.976562 26.519531 273.941406 26.496094 273.902344 26.488281 C 273.863281 26.480469 273.820312 26.488281 273.789062 26.511719 C 273.753906 26.539062 273.722656 26.5625 273.6875 26.582031 L 272.078125 27.578125 C 272.042969 27.597656 272.023438 27.632812 272.011719 27.667969 C 272.003906 27.703125 272.011719 27.742188 272.03125 27.777344 C 272.375 28.328125 272.71875 28.898438 273.074219 29.480469 L 273.074219 29.484375 L 273.078125 29.488281 L 273.199219 29.414062 L 273.078125 29.484375 C 273.375 29.976562 273.675781 30.476562 273.972656 30.976562 C 274 31.019531 274.050781 31.046875 274.101562 31.046875 C 274.152344 31.042969 274.199219 31.015625 274.222656 30.96875 C 274.25 30.914062 274.277344 30.859375 274.308594 30.804688 C 274.4375 30.550781 274.570312 30.292969 274.703125 30.039062 L 274.453125 29.90625 C 274.320312 30.164062 274.1875 30.417969 274.054688 30.675781 C 274.027344 30.730469 274 30.78125 273.96875 30.835938 L 274.097656 30.902344 L 274.21875 30.832031 C 273.917969 30.328125 273.621094 29.828125 273.320312 29.339844 L 273.320312 29.335938 L 273.316406 29.332031 L 273.195312 29.40625 L 273.316406 29.332031 C 272.964844 28.753906 272.617188 28.179688 272.273438 27.625 L 272.152344 27.699219 L 272.226562 27.820312 L 273.835938 26.824219 C 273.882812 26.796875 273.921875 26.769531 273.960938 26.742188 L 273.875 26.625 L 273.753906 26.699219 C 273.867188 26.894531 273.988281 27.085938 274.105469 27.285156 C 274.339844 27.660156 274.574219 28.046875 274.8125 28.433594 C 274.898438 28.570312 274.984375 28.710938 275.070312 28.847656 L 275.191406 28.773438 L 275.0625 28.707031 C 274.859375 29.105469 274.65625 29.507812 274.453125 29.910156 L 274.453125 29.90625 L 274.578125 29.972656 " fill-opacity="1" fill-rule="nonzero"/><g clip-path="url(#b1c988d22b)"><path fill="#ffffff" d="M 273.875 26.625 L 273.960938 26.742188 C 274.421875 26.398438 274.675781 25.863281 274.675781 25.316406 C 274.675781 25 274.589844 24.675781 274.414062 24.386719 L 274.410156 24.382812 L 269.753906 17.582031 C 269.710938 17.519531 269.625 17.5 269.5625 17.539062 L 269.152344 17.792969 C 269.121094 17.8125 269.097656 17.84375 269.089844 17.882812 C 269.082031 17.917969 269.089844 17.957031 269.109375 17.988281 L 272.800781 23.964844 C 272.847656 24.035156 272.867188 24.113281 272.867188 24.191406 C 272.867188 24.335938 272.792969 24.476562 272.660156 24.558594 C 272.589844 24.601562 272.511719 24.621094 272.433594 24.621094 C 272.289062 24.621094 272.148438 24.550781 272.066406 24.417969 L 272.0625 24.410156 L 268.058594 18.628906 C 268.015625 18.566406 267.929688 18.550781 267.867188 18.589844 L 267.542969 18.789062 C 267.480469 18.828125 267.457031 18.910156 267.492188 18.976562 L 270.84375 25.164062 L 270.847656 25.171875 C 270.890625 25.242188 270.914062 25.320312 270.914062 25.398438 C 270.910156 25.542969 270.839844 25.683594 270.707031 25.765625 C 270.636719 25.8125 270.558594 25.832031 270.480469 25.832031 C 270.335938 25.832031 270.195312 25.757812 270.113281 25.625 L 266.417969 19.652344 C 266.375 19.585938 266.289062 19.5625 266.222656 19.605469 L 265.777344 19.878906 C 265.710938 19.921875 265.691406 20.003906 265.726562 20.070312 L 269.769531 27.253906 L 269.773438 27.257812 C 270.105469 27.796875 270.6875 28.097656 271.28125 28.097656 C 271.597656 28.097656 271.921875 28.011719 272.210938 27.832031 L 272.226562 27.820312 L 273.835938 26.824219 C 273.882812 26.796875 273.921875 26.769531 273.960938 26.742188 L 273.875 26.625 L 273.789062 26.511719 C 273.753906 26.539062 273.722656 26.5625 273.6875 26.582031 L 272.078125 27.578125 L 272.058594 27.589844 C 271.816406 27.738281 271.546875 27.8125 271.28125 27.8125 C 270.78125 27.8125 270.296875 27.5625 270.015625 27.105469 L 269.894531 27.183594 L 270.015625 27.113281 L 266.042969 20.050781 L 266.25 19.921875 L 269.871094 25.777344 C 270.003906 25.996094 270.242188 26.117188 270.480469 26.117188 C 270.609375 26.117188 270.738281 26.082031 270.855469 26.007812 C 271.074219 25.875 271.195312 25.636719 271.195312 25.398438 C 271.195312 25.269531 271.160156 25.140625 271.089844 25.023438 L 270.96875 25.097656 L 271.09375 25.027344 L 267.808594 18.960938 L 267.902344 18.902344 L 271.828125 24.574219 L 271.945312 24.492188 L 271.824219 24.566406 C 271.960938 24.785156 272.195312 24.90625 272.433594 24.90625 C 272.5625 24.90625 272.695312 24.871094 272.8125 24.800781 C 273.03125 24.664062 273.152344 24.429688 273.152344 24.191406 C 273.152344 24.0625 273.117188 23.929688 273.042969 23.8125 L 269.425781 17.960938 L 269.59375 17.855469 L 274.171875 24.542969 L 274.292969 24.460938 L 274.171875 24.539062 C 274.320312 24.78125 274.390625 25.050781 274.390625 25.316406 C 274.390625 25.777344 274.179688 26.226562 273.789062 26.511719 L 273.875 26.625 " fill-opacity="1" fill-rule="nonzero"/></g><g clip-path="url(#02ee075e37)"><path fill="#ffffff" d="M 276.417969 30.902344 L 276.546875 30.964844 C 276.5625 30.933594 276.578125 30.902344 276.59375 30.875 C 276.65625 30.738281 276.722656 30.605469 276.789062 30.472656 C 277.035156 29.972656 277.277344 29.472656 277.523438 28.980469 C 277.726562 28.574219 277.925781 28.167969 278.125 27.773438 C 278.242188 27.535156 278.363281 27.296875 278.480469 27.066406 C 278.523438 26.984375 278.5625 26.90625 278.605469 26.824219 C 278.632812 26.773438 278.625 26.71875 278.59375 26.671875 C 278.5625 26.628906 278.507812 26.609375 278.453125 26.617188 C 278.328125 26.640625 278.203125 26.652344 278.085938 26.652344 C 277.835938 26.652344 277.601562 26.601562 277.382812 26.496094 C 277.117188 26.363281 276.898438 26.152344 276.726562 25.878906 C 276.699219 25.835938 276.652344 25.808594 276.597656 25.8125 C 276.546875 25.8125 276.5 25.84375 276.476562 25.890625 C 276.457031 25.9375 276.433594 25.980469 276.414062 26.023438 C 276.109375 26.644531 275.785156 27.28125 275.457031 27.933594 L 275.457031 27.9375 C 275.328125 28.195312 275.195312 28.449219 275.0625 28.707031 C 274.859375 29.105469 274.65625 29.507812 274.453125 29.910156 L 274.453125 29.90625 C 274.320312 30.164062 274.1875 30.417969 274.054688 30.675781 C 274.027344 30.730469 274 30.78125 273.96875 30.835938 C 273.789062 31.183594 273.613281 31.527344 273.433594 31.871094 L 273.429688 31.871094 C 273.09375 32.515625 272.757812 33.148438 272.429688 33.761719 C 272.101562 34.375 271.78125 34.964844 271.476562 35.523438 C 271.171875 36.085938 270.878906 36.609375 270.609375 37.097656 C 270.339844 37.582031 270.089844 38.027344 269.863281 38.417969 L 269.867188 38.417969 C 269.640625 38.808594 269.441406 39.152344 269.28125 39.433594 C 269.117188 39.710938 268.988281 39.933594 268.898438 40.082031 C 268.808594 40.230469 268.761719 40.308594 268.761719 40.308594 L 268.761719 40.3125 C 268.691406 40.425781 268.625 40.554688 268.574219 40.6875 C 268.441406 41.007812 268.378906 41.332031 268.378906 41.640625 C 268.378906 41.992188 268.460938 42.316406 268.617188 42.585938 C 268.777344 42.851562 269.015625 43.0625 269.316406 43.164062 C 269.457031 43.214844 269.601562 43.238281 269.746094 43.238281 C 270.125 43.238281 270.507812 43.085938 270.835938 42.824219 C 271.167969 42.566406 271.449219 42.199219 271.628906 41.757812 C 271.628906 41.757812 271.664062 41.671875 271.730469 41.507812 L 271.730469 41.511719 C 271.796875 41.351562 271.894531 41.113281 272.019531 40.816406 C 272.148438 40.515625 272.304688 40.15625 272.480469 39.738281 C 272.660156 39.324219 272.867188 38.859375 273.09375 38.351562 C 273.320312 37.84375 273.566406 37.292969 273.832031 36.714844 C 274.097656 36.132812 274.378906 35.523438 274.671875 34.894531 C 274.941406 34.320312 275.222656 33.726562 275.507812 33.128906 C 275.535156 33.070312 275.5625 33.015625 275.589844 32.957031 C 275.898438 32.300781 276.226562 31.632812 276.546875 30.964844 L 276.417969 30.902344 L 276.292969 30.839844 C 275.96875 31.507812 275.644531 32.175781 275.332031 32.835938 C 275.304688 32.890625 275.277344 32.949219 275.25 33.003906 C 274.964844 33.605469 274.683594 34.199219 274.414062 34.773438 C 274.121094 35.40625 273.839844 36.015625 273.574219 36.59375 C 273.308594 37.175781 273.0625 37.726562 272.832031 38.234375 C 272.605469 38.742188 272.402344 39.210938 272.222656 39.625 L 272.21875 39.625 C 272.042969 40.042969 271.886719 40.40625 271.757812 40.703125 C 271.632812 41.003906 271.535156 41.238281 271.464844 41.402344 C 271.398438 41.5625 271.363281 41.648438 271.363281 41.648438 C 271.203125 42.046875 270.949219 42.375 270.660156 42.601562 C 270.371094 42.828125 270.046875 42.953125 269.746094 42.953125 C 269.628906 42.953125 269.519531 42.933594 269.410156 42.898438 C 269.175781 42.816406 268.992188 42.65625 268.863281 42.441406 C 268.734375 42.222656 268.664062 41.945312 268.664062 41.640625 C 268.664062 41.371094 268.71875 41.082031 268.835938 40.792969 C 268.882812 40.679688 268.945312 40.558594 269.007812 40.457031 L 269.003906 40.457031 C 269.003906 40.457031 269.054688 40.378906 269.144531 40.226562 C 269.230469 40.078125 269.363281 39.855469 269.527344 39.578125 L 269.527344 39.574219 C 269.691406 39.292969 269.886719 38.953125 270.113281 38.558594 C 270.335938 38.167969 270.585938 37.722656 270.859375 37.234375 C 271.128906 36.75 271.421875 36.222656 271.726562 35.660156 C 272.035156 35.101562 272.351562 34.507812 272.679688 33.898438 C 273.007812 33.28125 273.34375 32.648438 273.683594 32 L 273.683594 32.003906 C 273.863281 31.660156 274.042969 31.316406 274.222656 30.96875 C 274.25 30.914062 274.277344 30.859375 274.308594 30.804688 C 274.4375 30.550781 274.570312 30.292969 274.703125 30.039062 C 274.910156 29.636719 275.113281 29.238281 275.316406 28.839844 C 275.449219 28.582031 275.582031 28.320312 275.710938 28.066406 L 275.710938 28.058594 L 275.710938 28.0625 C 276.039062 27.410156 276.363281 26.773438 276.667969 26.148438 C 276.691406 26.101562 276.710938 26.058594 276.734375 26.015625 L 276.605469 25.953125 L 276.484375 26.027344 C 276.679688 26.339844 276.9375 26.59375 277.257812 26.75 C 277.515625 26.878906 277.796875 26.9375 278.085938 26.9375 C 278.222656 26.9375 278.363281 26.925781 278.503906 26.898438 L 278.480469 26.757812 L 278.351562 26.695312 C 278.3125 26.773438 278.269531 26.855469 278.226562 26.9375 C 278.109375 27.167969 277.988281 27.40625 277.871094 27.644531 C 277.671875 28.042969 277.472656 28.445312 277.269531 28.855469 C 277.023438 29.347656 276.777344 29.847656 276.535156 30.347656 C 276.46875 30.480469 276.402344 30.613281 276.335938 30.75 C 276.320312 30.777344 276.304688 30.808594 276.292969 30.839844 L 276.417969 30.902344 " fill-opacity="1" fill-rule="nonzero"/></g><g clip-path="url(#ff0ba6b29d)"><path fill="#ffffff" d="M 277.320312 26.621094 L 277.257812 26.75 C 277.515625 26.878906 277.796875 26.9375 278.085938 26.9375 C 278.222656 26.9375 278.363281 26.925781 278.503906 26.898438 C 279.160156 26.777344 279.839844 26.390625 280.472656 25.808594 C 281.105469 25.222656 281.691406 24.4375 282.152344 23.511719 C 282.46875 22.867188 282.75 22.246094 282.949219 21.652344 C 283.152344 21.058594 283.277344 20.496094 283.277344 19.972656 C 283.277344 19.492188 283.171875 19.046875 282.925781 18.652344 C 282.679688 18.257812 282.296875 17.921875 281.757812 17.65625 C 281.296875 17.429688 280.867188 17.320312 280.464844 17.320312 C 280.066406 17.320312 279.699219 17.425781 279.363281 17.613281 C 278.855469 17.890625 278.414062 18.347656 278.007812 18.914062 C 277.597656 19.484375 277.226562 20.164062 276.863281 20.894531 C 276.308594 22.023438 276.03125 23.167969 276.03125 24.160156 C 276.03125 24.886719 276.179688 25.535156 276.484375 26.027344 C 276.679688 26.339844 276.9375 26.59375 277.257812 26.75 L 277.320312 26.621094 L 277.382812 26.496094 C 277.117188 26.363281 276.898438 26.152344 276.726562 25.878906 C 276.460938 25.445312 276.316406 24.851562 276.316406 24.160156 C 276.316406 23.222656 276.578125 22.113281 277.117188 21.023438 C 277.597656 20.054688 278.089844 19.1875 278.636719 18.578125 C 278.910156 18.269531 279.195312 18.027344 279.5 17.859375 C 279.800781 17.695312 280.117188 17.605469 280.464844 17.605469 C 280.816406 17.605469 281.203125 17.699219 281.628906 17.910156 C 282.132812 18.160156 282.46875 18.460938 282.683594 18.804688 C 282.898438 19.144531 282.992188 19.535156 282.992188 19.972656 C 282.992188 20.449219 282.875 20.988281 282.679688 21.5625 C 282.484375 22.136719 282.210938 22.75 281.894531 23.382812 C 281.453125 24.285156 280.882812 25.039062 280.277344 25.597656 C 279.675781 26.15625 279.035156 26.511719 278.453125 26.617188 C 278.328125 26.640625 278.203125 26.652344 278.085938 26.652344 C 277.835938 26.652344 277.601562 26.601562 277.382812 26.496094 L 277.320312 26.621094 " fill-opacity="1" fill-rule="nonzero"/></g><path fill="#ffffff" d="M 277.945312 25.808594 C 277.957031 25.804688 278.480469 25.710938 279.183594 25.296875 C 279.886719 24.886719 280.765625 24.152344 281.492188 22.878906 C 282.25 21.546875 282.457031 20.714844 282.457031 20.160156 C 282.457031 19.914062 282.414062 19.722656 282.363281 19.574219 C 282.3125 19.429688 282.257812 19.324219 282.234375 19.261719 C 282.210938 19.1875 282.128906 19.152344 282.054688 19.175781 C 281.980469 19.203125 281.941406 19.285156 281.96875 19.359375 C 282.003906 19.453125 282.050781 19.542969 282.09375 19.667969 C 282.136719 19.789062 282.171875 19.945312 282.171875 20.160156 C 282.171875 20.640625 281.988281 21.429688 281.242188 22.738281 C 280.546875 23.964844 279.703125 24.660156 279.039062 25.054688 C 278.707031 25.25 278.417969 25.367188 278.214844 25.4375 C 278.113281 25.472656 278.03125 25.496094 277.976562 25.507812 C 277.949219 25.515625 277.929688 25.519531 277.914062 25.523438 L 277.902344 25.527344 L 277.898438 25.527344 L 277.90625 25.582031 L 277.898438 25.527344 L 277.90625 25.582031 L 277.898438 25.527344 C 277.820312 25.542969 277.769531 25.613281 277.78125 25.691406 C 277.796875 25.769531 277.871094 25.820312 277.945312 25.808594 " fill-opacity="1" fill-rule="nonzero"/></svg>